<svg width="32" height="32" viewBox="0 0 32 32" fill="none" xmlns="http://www.w3.org/2000/svg">
<g clip-path="url(#clip0_10_464)">
<path d="M16 0C7.17706 0 0 7.17706 0 16C0 24.8229 7.17706 32 16 32C24.8229 32 32 24.8217 32 16C32 7.17831 24.8229 0 16 0ZM16 29.5213C8.54531 29.5213 2.47869 23.4559 2.47869 16C2.47869 8.54406 8.54531 2.47869 16 2.47869C23.4547 2.47869 29.5213 8.54406 29.5213 16C29.5213 23.4559 23.4559 29.5213 16 29.5213Z" fill="black"/>
<path d="M22.1968 14.6494H17.2395V9.69201C17.2395 9.00789 16.6855 8.45264 16.0001 8.45264C15.3147 8.45264 14.7607 9.00789 14.7607 9.69201V14.6494H9.80334C9.11796 14.6494 8.56396 15.2046 8.56396 15.8888C8.56396 16.5729 9.11796 17.1281 9.80334 17.1281H14.7607V22.0855C14.7607 22.7696 15.3147 23.3249 16.0001 23.3249C16.6855 23.3249 17.2395 22.7696 17.2395 22.0855V17.1281H22.1968C22.8822 17.1281 23.4362 16.5729 23.4362 15.8888C23.4362 15.2046 22.8822 14.6494 22.1968 14.6494Z" fill="black"/>
</g>
<defs>
<clipPath id="clip0_10_464">
<rect width="32" height="32" fill="white"/>
</clipPath>
</defs>
</svg>
