<svg width="32" height="32" viewBox="0 0 32 32" fill="none" xmlns="http://www.w3.org/2000/svg">
<path d="M23.9416 20.4461L23.3397 19.5418L22.8021 19.6817C19.9429 20.4228 16.9346 20.8001 13.86 20.8001C10.797 20.8001 7.79348 20.4228 4.93204 19.6813L4.39412 19.5415L3.7922 20.4458C3.46644 20.9335 3.2002 21.8125 3.2002 22.4001V28.8001H5.33364L6.4002 26.6666H21.3336L22.4002 28.8001H24.5336V22.4001C24.5336 21.8125 24.2668 20.9335 23.9416 20.4461ZM8.53364 24.5335H5.86708V22.9335H8.53364V24.5335ZM17.0668 24.5335H10.6668V22.9335H17.0668V24.5335ZM21.8668 24.5335H19.2002V22.9335H21.8668V24.5335Z" fill="black"/>
<path d="M14.1506 11.7436C11.8408 11.7205 9.56627 11.9893 7.46675 12.533L6.14611 15.9999H3.2002V17.5999L5.33364 18.1333C11.0226 19.6082 17.1253 19.502 22.4002 18.1333C18.4367 18.1333 15.1055 15.4124 14.1506 11.7436Z" fill="black"/>
<path d="M22.4 3.2002C18.8646 3.2002 16 6.06484 16 9.60019C16 13.1356 18.8646 16.0002 22.4 16.0002C25.9354 16.0002 28.8 13.1356 28.8 9.60019C28.8 6.06484 25.9354 3.2002 22.4 3.2002ZM25.6 10.4002H23.2V12.8002H21.6V10.4002H19.2V8.8002H21.6V6.4002H23.2V8.8002H25.6V10.4002Z" fill="black"/>
</svg>
