<svg width="32" height="32" viewBox="0 0 32 32" fill="none" xmlns="http://www.w3.org/2000/svg">
<g clip-path="url(#clip0_15_307)">
<path d="M24.3663 16.1769C24.1948 15.8766 23.9084 15.8442 23.7932 15.8442C23.678 15.8442 23.3916 15.8767 23.2202 16.1769L15.6756 29.388C15.5056 29.6858 15.6206 29.9477 15.678 30.0466C15.7354 30.1454 15.9058 30.3751 16.2487 30.3751H31.3378C31.6807 30.3751 31.8511 30.1453 31.9085 30.0466C31.9659 29.9477 32.0809 29.6858 31.9108 29.388L24.3663 16.1769ZM22.8732 20.7976H24.7482V25.0614H22.8732V20.7976ZM23.8107 28.4672C23.2851 28.4672 22.8959 28.0377 22.8732 27.5297C22.8505 27.0234 23.3203 26.5922 23.8107 26.5922C24.3363 26.5922 24.7254 27.0218 24.7482 27.5297C24.7709 28.0361 24.3011 28.4672 23.8107 28.4672Z" fill="black"/>
<path d="M21.2396 15.8969C21.2715 15.7145 21.2975 15.5302 21.3176 15.3449H19.4371V13.4699H21.3168C20.8818 9.48293 17.7064 6.30756 13.7194 5.87262V7.75237H11.8444V5.87256C7.85738 6.30756 4.68207 9.48287 4.24707 13.4699H6.12676V15.3449H4.24713C4.68207 19.3319 7.85745 22.5072 11.8444 22.9422V21.0625H13.7194V22.9421C15.442 22.7536 17.0708 22.0481 18.3914 20.9074L21.2516 15.8989L21.2396 15.8969ZM14.7143 17.5024L11.8444 15.4165V9.65412H13.7194V14.4614L15.8167 15.9858L14.7143 17.5024Z" fill="black"/>
<path d="M12.7822 24.8684C7.01388 24.8684 2.321 20.1756 2.321 14.4072C2.321 8.63881 7.01388 3.946 12.7822 3.946C18.4269 3.946 23.041 8.44006 23.2362 14.0381C23.426 13.9938 23.6229 13.9694 23.8251 13.9694C24.4881 13.9694 25.0992 14.2178 25.5606 14.6546C25.5621 14.5721 25.5644 14.4897 25.5644 14.4072C25.5644 7.35906 19.8303 1.625 12.7821 1.625C5.73406 1.625 0 7.35906 0 14.4072C0 21.4553 5.73406 27.1894 12.7822 27.1894C13.4944 27.1894 14.2066 27.1302 14.9043 27.0138L16.5243 24.1769C15.3402 24.6304 14.0735 24.8684 12.7822 24.8684Z" fill="black"/>
</g>
<defs>
<clipPath id="clip0_15_307">
<rect width="32" height="32" fill="white"/>
</clipPath>
</defs>
</svg>
