<svg width="32" height="32" viewBox="0 0 32 32" fill="none" xmlns="http://www.w3.org/2000/svg">
<g clip-path="url(#clip0_10_408)">
<path d="M6.04756 10.9634C6.42431 10.4921 6.67993 9.85945 6.61256 9.21289C6.06106 9.24033 5.38806 9.57676 4.99843 10.0483C4.64856 10.4522 4.33893 11.1114 4.41968 11.7308C5.03868 11.7845 5.65725 11.4214 6.04756 10.9634Z" fill="black"/>
<path d="M6.60584 11.8517C5.70677 11.7982 4.94234 12.362 4.51296 12.362C4.0834 12.362 3.4259 11.8787 2.71477 11.8917C1.78921 11.9054 0.9304 12.4287 0.460712 13.261C-0.50535 14.926 0.205775 17.3959 1.14521 18.752C1.6014 19.4229 2.15127 20.1616 2.87571 20.135C3.56021 20.1082 3.82852 19.6918 4.66052 19.6918C5.49196 19.6918 5.73365 20.135 6.45821 20.1216C7.20965 20.1082 7.6794 19.4504 8.13559 18.7788C8.65896 18.014 8.87321 17.2755 8.88665 17.235C8.87315 17.2215 7.43771 16.6709 7.4244 15.0197C7.41084 13.6371 8.5514 12.9794 8.60509 12.9387C7.96109 11.9862 6.95471 11.8787 6.60584 11.8517Z" fill="black"/>
<path d="M14.4344 9.98047C16.3886 9.98047 17.7493 11.3275 17.7493 13.2886C17.7493 15.2567 16.3605 16.6107 14.3854 16.6107H12.2219V20.0514H10.6587V9.98047H14.4344ZM12.2218 15.2986H14.0154C15.3764 15.2986 16.151 14.5658 16.151 13.2956C16.151 12.0255 15.3764 11.2996 14.0224 11.2996H12.2218V15.2986Z" fill="black"/>
<path d="M18.1577 17.9651C18.1577 16.6808 19.1418 15.8922 20.8867 15.7945L22.8966 15.6759V15.1106C22.8966 14.2941 22.3452 13.8055 21.4242 13.8055C20.5515 13.8055 20.0072 14.2242 19.8747 14.8803H18.451C18.5347 13.5542 19.6652 12.5771 21.4799 12.5771C23.2595 12.5771 24.3971 13.5193 24.3971 14.9919V20.0518H22.9523V18.8444H22.9176C22.4919 19.661 21.5636 20.1774 20.6005 20.1774C19.1628 20.1774 18.1577 19.284 18.1577 17.9651ZM22.8965 17.3021V16.7228L21.0889 16.8345C20.1886 16.8973 19.6792 17.2951 19.6792 17.9233C19.6792 18.5653 20.2095 18.9841 21.0192 18.9841C22.073 18.984 22.8965 18.2581 22.8965 17.3021Z" fill="black"/>
<path d="M25.7605 22.7525V21.5312C25.872 21.559 26.1232 21.559 26.2489 21.559C26.9468 21.559 27.3237 21.266 27.5539 20.5122C27.5539 20.4982 27.6867 20.0655 27.6867 20.0585L25.0347 12.7095H26.6676L28.5243 18.6837H28.552L30.4087 12.7095H31.9998L29.2498 20.4353C28.6219 22.2152 27.896 22.7874 26.3746 22.7874C26.2489 22.7874 25.872 22.7734 25.7605 22.7525Z" fill="black"/>
</g>
<defs>
<clipPath id="clip0_10_408">
<rect width="32" height="32" fill="white"/>
</clipPath>
</defs>
</svg>
