<svg width="32" height="32" viewBox="0 0 32 32" fill="none" xmlns="http://www.w3.org/2000/svg">
<path fill-rule="evenodd" clip-rule="evenodd" d="M7.99984 3.6665C7.81573 3.6665 7.6665 3.81573 7.6665 3.99984V27.39L10.7519 25.1861C11.0996 24.9377 11.5667 24.9377 11.9144 25.1861L15.9998 28.1042L20.0853 25.1861C20.4329 24.9377 20.9001 24.9377 21.2477 25.1861L24.3332 27.39V3.99984C24.3332 3.81573 24.184 3.6665 23.9998 3.6665H7.99984ZM5.6665 3.99984C5.6665 2.71118 6.71114 1.6665 7.99984 1.6665H23.9998C25.2885 1.6665 26.3332 2.71118 26.3332 3.99984V29.3332C26.3332 29.7077 26.1238 30.0509 25.7908 30.2224C25.4577 30.3937 25.0568 30.3646 24.752 30.1469L20.6665 27.2288L16.581 30.1469C16.2334 30.3953 15.7662 30.3953 15.4186 30.1469L11.3332 27.2288L7.24774 30.1469C6.94293 30.3646 6.542 30.3937 6.20892 30.2224C5.87585 30.0509 5.6665 29.7077 5.6665 29.3332V3.99984Z" fill="black"/>
<path fill-rule="evenodd" clip-rule="evenodd" d="M11 14.6665C11 14.1142 11.4477 13.6665 12 13.6665H20C20.5523 13.6665 21 14.1142 21 14.6665C21 15.2188 20.5523 15.6665 20 15.6665H12C11.4477 15.6665 11 15.2188 11 14.6665Z" fill="black"/>
<path fill-rule="evenodd" clip-rule="evenodd" d="M11 20C11 19.4477 11.4477 19 12 19H20C20.5523 19 21 19.4477 21 20C21 20.5523 20.5523 21 20 21H12C11.4477 21 11 20.5523 11 20Z" fill="black"/>
<path fill-rule="evenodd" clip-rule="evenodd" d="M11 9.33301C11 8.78073 11.4477 8.33301 12 8.33301H20C20.5523 8.33301 21 8.78073 21 9.33301C21 9.88529 20.5523 10.333 20 10.333H12C11.4477 10.333 11 9.88529 11 9.33301Z" fill="black"/>
</svg>
