<svg width="32" height="32" viewBox="0 0 32 32" fill="none" xmlns="http://www.w3.org/2000/svg">
<path d="M25.3337 6.66699H24.0003V4.00033C24.0003 3.6467 23.8598 3.30756 23.6098 3.05752C23.3598 2.80747 23.0206 2.66699 22.667 2.66699C22.3134 2.66699 21.9742 2.80747 21.7242 3.05752C21.4741 3.30756 21.3337 3.6467 21.3337 4.00033V6.66699H10.667V4.00033C10.667 3.6467 10.5265 3.30756 10.2765 3.05752C10.0264 2.80747 9.68728 2.66699 9.33366 2.66699C8.98004 2.66699 8.6409 2.80747 8.39085 3.05752C8.1408 3.30756 8.00033 3.6467 8.00033 4.00033V6.66699H6.66699C5.60613 6.66699 4.58871 7.08842 3.83857 7.83857C3.08842 8.58871 2.66699 9.60613 2.66699 10.667V12.0003H29.3337V10.667C29.3337 9.60613 28.9122 8.58871 28.1621 7.83857C27.4119 7.08842 26.3945 6.66699 25.3337 6.66699Z" fill="black"/>
<path d="M2.66699 25.3337C2.66699 26.3945 3.08842 27.4119 3.83857 28.1621C4.58871 28.9122 5.60613 29.3337 6.66699 29.3337H25.3337C26.3945 29.3337 27.4119 28.9122 28.1621 28.1621C28.9122 27.4119 29.3337 26.3945 29.3337 25.3337V14.667H2.66699V25.3337Z" fill="black"/>
</svg>
