<svg width="32" height="32" viewBox="0 0 32 32" fill="none" xmlns="http://www.w3.org/2000/svg">
<path d="M30.2701 7.94824H1.72961C1.50023 7.94824 1.28025 8.03936 1.11806 8.20156C0.955865 8.36375 0.864746 8.58373 0.864746 8.81311V11.092C0.864746 11.3214 0.955865 11.5414 1.11806 11.7036C1.28025 11.8658 1.50023 11.9569 1.72961 11.9569H30.2701C30.4995 11.9569 30.7195 11.8658 30.8817 11.7036C31.0439 11.5414 31.135 11.3214 31.135 11.092V8.81311C31.135 8.58373 31.0439 8.36375 30.8817 8.20156C30.7195 8.03936 30.4995 7.94824 30.2701 7.94824Z" fill="black"/>
<path d="M2.27002 28.2726C2.27002 28.3873 2.31558 28.4973 2.39668 28.5784C2.47777 28.6595 2.58776 28.705 2.70245 28.705H29.2971C29.4117 28.705 29.5217 28.6595 29.6028 28.5784C29.6839 28.4973 29.7295 28.3873 29.7295 28.2726V12.8218H2.27002V28.2726ZM12.51 21.4877L14.5943 16.731C14.6288 16.6544 14.6847 16.5895 14.7553 16.5442C14.826 16.4989 14.9083 16.4752 14.9922 16.4758H18.3133C18.386 16.4757 18.4575 16.4938 18.5214 16.5286C18.5852 16.5634 18.6392 16.6137 18.6784 16.6749C18.7176 16.7361 18.7408 16.8063 18.7458 16.8788C18.7507 16.9513 18.7373 17.0239 18.7068 17.0899L17.4095 19.9396H19.1133C19.2011 19.939 19.2871 19.9651 19.3597 20.0146C19.4323 20.064 19.4881 20.1344 19.5198 20.2164C19.5511 20.2992 19.5563 20.3896 19.5347 20.4754C19.513 20.5613 19.4656 20.6384 19.3987 20.6964L13.6214 25.7991C13.5505 25.862 13.4609 25.8999 13.3663 25.907C13.2718 25.914 13.1776 25.8898 13.0981 25.838C13.0177 25.7855 12.957 25.7077 12.9257 25.6168C12.8943 25.526 12.8942 25.4273 12.9252 25.3364L14.0279 22.0975H12.9079C12.8355 22.0973 12.7643 22.0791 12.7009 22.0443C12.6374 22.0096 12.5837 21.9594 12.5446 21.8985C12.5051 21.8384 12.4813 21.7693 12.4752 21.6975C12.4692 21.6258 12.4811 21.5537 12.51 21.4877Z" fill="black"/>
<path d="M27.3857 5.87252C27.3857 5.75783 27.3401 5.64784 27.259 5.56674C27.1779 5.48565 27.0679 5.44009 26.9532 5.44009H26.0538V3.92657C26.0538 3.81188 26.0082 3.70189 25.9271 3.6208C25.846 3.5397 25.736 3.49414 25.6213 3.49414H22.3781C22.2634 3.49414 22.1534 3.5397 22.0723 3.6208C21.9912 3.70189 21.9457 3.81188 21.9457 3.92657V5.44009H21.0462C20.9315 5.44009 20.8215 5.48565 20.7404 5.56674C20.6593 5.64784 20.6138 5.75783 20.6138 5.87252V7.08333H27.3857V5.87252Z" fill="black"/>
<path d="M11.3857 5.87252C11.3857 5.75783 11.3401 5.64784 11.259 5.56674C11.1779 5.48565 11.0679 5.44009 10.9532 5.44009H10.0538V3.92657C10.0538 3.81188 10.0082 3.70189 9.92711 3.6208C9.84602 3.5397 9.73602 3.49414 9.62134 3.49414H6.37809C6.26341 3.49414 6.15341 3.5397 6.07232 3.6208C5.99122 3.70189 5.94566 3.81188 5.94566 3.92657V5.44009H5.0462C4.93151 5.44009 4.82152 5.48565 4.74043 5.56674C4.65933 5.64784 4.61377 5.75783 4.61377 5.87252V7.08333H11.3857V5.87252Z" fill="black"/>
</svg>
