<svg width="32" height="32" viewBox="0 0 32 32" fill="none" xmlns="http://www.w3.org/2000/svg">
<g clip-path="url(#clip0_10_234)">
<path d="M22.656 6.68545C22.4731 6.50257 22.2329 6.41113 21.9927 6.41113C21.7525 6.41113 21.5123 6.50263 21.3294 6.68545C20.961 7.05388 20.961 7.64901 21.3267 8.01476L23.9854 10.6734C24.351 11.0391 24.9462 11.0392 25.312 10.6734C25.6804 10.305 25.6804 9.70982 25.3147 9.34407L22.656 6.68545Z" fill="black"/>
<path d="M31.9734 9.51004C31.8598 8.4471 31.3809 7.44554 30.6251 6.68973L25.3102 1.37479C24.5544 0.618915 23.5528 0.14004 22.4899 0.0264149C21.4269 -0.0873976 20.3468 0.16904 19.4483 0.747977L16.6438 2.5551C15.1386 3.52491 13.8835 4.77991 12.9134 6.28529L11.1064 9.08991C10.5274 9.98848 10.2711 11.0687 10.3848 12.1315C10.4984 13.1944 10.9773 14.1959 11.7331 14.9518L17.0481 20.2668C17.8039 21.0227 18.8055 21.5014 19.8684 21.6151C20.0332 21.6327 20.1985 21.6414 20.3634 21.6414C21.2619 21.6414 22.1508 21.3826 22.9099 20.8935L25.7146 19.0864C27.2199 18.1164 28.4749 16.8613 29.4447 15.3561L31.2519 12.5515C31.8308 11.6531 32.0871 10.5729 31.9734 9.51004ZM26.641 11.9975C26.0907 12.5477 25.3687 12.8227 24.6473 12.8227C23.9267 12.8227 23.2067 12.5485 22.6584 12.0002L19.9997 9.34148C18.9024 8.24423 18.9024 6.45885 19.9996 5.3616C21.0996 4.2616 22.885 4.2616 23.9823 5.35891L26.6409 8.01754C27.7383 9.11479 27.7383 10.9002 26.641 11.9975Z" fill="black"/>
<path d="M14.0752 21.7416L14.4204 22.0869L15.3065 21.2008L10.7331 16.6274L8.03331 19.3273C7.93368 19.4269 7.85781 19.5476 7.81124 19.6806L7.06974 21.7987C6.98199 22.0494 6.79212 22.2511 6.54724 22.3538L4.73556 23.1138C4.49062 23.2166 4.30074 23.4183 4.21299 23.6689L3.55012 25.5628C3.45581 25.8322 3.24399 26.044 2.97462 26.1383L1.20931 26.7563C0.887057 26.8691 0.651494 27.148 0.594369 27.4846L0.0136195 30.9047C-0.095818 31.5492 0.470994 32.1052 1.11324 31.9834L4.49968 31.3411C4.80899 31.2824 5.06818 31.0726 5.18993 30.7823L5.92918 29.0198C6.02431 28.7931 6.20462 28.6127 6.43143 28.5176L8.32606 27.7229C8.54024 27.6331 8.71349 27.4669 8.81231 27.2568L9.67187 25.4273C9.77343 25.211 9.95368 25.0417 10.1758 24.9539L12.2746 24.1237C12.3938 24.0765 12.5021 24.0054 12.5928 23.9147L13.0937 23.4138L12.7485 23.0685C12.3821 22.7021 12.3822 22.1082 12.7485 21.7419C13.1149 21.3753 13.7089 21.3753 14.0752 21.7416Z" fill="black"/>
</g>
<defs>
<clipPath id="clip0_10_234">
<rect width="32" height="32" fill="white"/>
</clipPath>
</defs>
</svg>
