<svg width="32" height="32" viewBox="0 0 32 32" fill="none" xmlns="http://www.w3.org/2000/svg">
<path d="M13 17H18.004V13H7.542L9.058 9.606C9.217 9.238 9.578 9 9.978 9H16.148C15.955 7.989 15.952 7.032 16.152 6H9.978C8.376 6 6.933 6.952 6.302 8.424L4.134 13.484C2.871 14.157 2 15.472 2 17V19C2 20.474 2.81 21.75 4 22.444V26C4 27.103 4.897 28 6 28H9C10.103 28 11 27.103 11 26V23H18.004V19H13C12.448 19 12 18.552 12 18C12 17.448 12.448 17 13 17ZM7.5 20.5C6.119 20.5 5 19.381 5 18C5 16.619 6.119 15.5 7.5 15.5C8.881 15.5 10 16.619 10 18C10 19.381 8.881 20.5 7.5 20.5Z" fill="black"/>
<path d="M29.9218 6.47743C29.5088 4.11043 27.5228 2.41743 26.3848 2.07243C26.1928 2.01443 26.0038 2.16643 26.0038 2.36643V7.38343C26.0038 7.76243 25.7898 8.10843 25.4508 8.27743L24.4508 8.77743C24.1688 8.91843 23.8378 8.91843 23.5568 8.77743L22.5568 8.27743C22.2178 8.10843 22.0038 7.76143 22.0038 7.38343V2.36643C22.0038 2.16543 21.8138 2.01343 21.6208 2.07243C20.4818 2.42543 18.4968 4.14443 18.0868 6.49143C17.7348 8.50743 18.4908 10.4844 19.6838 11.6784C19.8798 11.8744 20.0028 12.1274 20.0028 12.4044V26.0014C20.0028 28.2094 21.7928 29.9994 24.0008 29.9994C26.2088 29.9994 27.9988 28.2094 27.9988 26.0014L28.0018 12.4094C28.0018 12.1294 28.1288 11.8714 28.3268 11.6724C29.5278 10.4724 30.2728 8.48643 29.9218 6.47743ZM24.0088 27.5004C23.1808 27.5004 22.5088 26.8284 22.5088 26.0004C22.5088 25.1724 23.1808 24.5004 24.0088 24.5004C24.8368 24.5004 25.5088 25.1724 25.5088 26.0004C25.5088 26.8284 24.8368 27.5004 24.0088 27.5004Z" fill="black"/>
</svg>
