<svg width="32" height="32" viewBox="0 0 32 32" fill="none" xmlns="http://www.w3.org/2000/svg">
<g clip-path="url(#clip0_10_56)">
<path d="M24.2366 23.7925C22.1814 23.7905 20.5138 25.455 20.5117 27.5102C20.5097 29.5653 22.1742 31.233 24.2294 31.2351C26.2846 31.237 27.9523 29.5726 27.9543 27.5174C27.9543 27.5162 27.9543 27.515 27.9543 27.5138C27.9523 25.4608 26.2896 23.7965 24.2366 23.7925Z" fill="black"/>
<path d="M30.837 5.97309C30.748 5.95585 30.6575 5.94709 30.5668 5.94695H7.90908L7.55023 3.54623C7.32665 1.95187 5.96288 0.765627 4.35288 0.765137H1.4354C0.642637 0.765137 0 1.40777 0 2.20054C0 2.9933 0.642637 3.63594 1.4354 3.63594H4.35646C4.53897 3.63461 4.69344 3.77051 4.71531 3.95176L6.92581 19.1024C7.22887 21.0276 8.88484 22.4478 10.8337 22.4541H25.7655C27.6418 22.4565 29.2605 21.1378 29.6375 19.2998L31.9736 7.65507C32.1242 6.87674 31.6154 6.12371 30.837 5.97309Z" fill="black"/>
<path d="M15.1206 27.3543C15.0332 25.3594 13.3868 23.789 11.3899 23.7959C9.3364 23.8789 7.73896 25.6109 7.82194 27.6644C7.90156 29.6348 9.5044 31.2009 11.476 31.2349H11.5658C13.619 31.1449 15.2105 29.4075 15.1206 27.3543Z" fill="black"/>
</g>
<defs>
<clipPath id="clip0_10_56">
<rect width="32" height="32" fill="white"/>
</clipPath>
</defs>
</svg>
