<svg width="32" height="32" viewBox="0 0 32 32" fill="none" xmlns="http://www.w3.org/2000/svg">
<g clip-path="url(#clip0_10_269)">
<path d="M21.1333 4.48467L21.4093 5.222L21.6853 4.48467C21.8006 4.17675 21.9806 3.89714 22.2131 3.66471C22.4456 3.43228 22.7253 3.25244 23.0333 3.13733L23.7667 2.86133L23.0333 2.58533C22.7256 2.46991 22.4461 2.28987 22.2138 2.05735C21.9815 1.82482 21.8018 1.5452 21.6866 1.23733L21.4107 0.5L21.1333 1.23733C21.0182 1.5452 20.8384 1.82482 20.6061 2.05735C20.3738 2.28987 20.0944 2.46991 19.7867 2.58533L19.0493 2.86133L19.7867 3.13733C20.0944 3.2526 20.3738 3.43251 20.6061 3.66493C20.8384 3.89735 21.0182 4.17688 21.1333 4.48467Z" fill="black"/>
<path d="M26.2515 7.19614L26.4601 7.7548L26.6668 7.19614C26.7541 6.96257 26.8905 6.75046 27.0668 6.57414C27.2431 6.39783 27.4552 6.26142 27.6888 6.17414L28.2475 5.9648L27.6888 5.75547C27.4552 5.66819 27.2431 5.53178 27.0668 5.35547C26.8905 5.17915 26.7541 4.96704 26.6668 4.73347L26.4575 4.1748L26.2488 4.73347C26.1613 4.96693 26.0249 5.17894 25.8486 5.35523C25.6723 5.53152 25.4603 5.668 25.2268 5.75547L24.6675 5.9648L25.2268 6.17414C25.4608 6.26129 25.6733 6.39762 25.8501 6.57393C26.0268 6.75023 26.1637 6.96241 26.2515 7.19614Z" fill="black"/>
<path d="M29.3748 4.09196L29.5835 4.65129L29.7928 4.09196C29.8803 3.8585 30.0167 3.64648 30.193 3.47019C30.3693 3.29391 30.5813 3.15743 30.8148 3.06996L31.3735 2.86129L30.8148 2.65196C30.5812 2.56467 30.3691 2.42826 30.1928 2.25195C30.0165 2.07564 29.8801 1.86353 29.7928 1.62996L29.5835 1.07129L29.3748 1.62996C29.2873 1.86342 29.1508 2.07543 28.9746 2.25172C28.7983 2.42801 28.5863 2.56448 28.3528 2.65196L27.7935 2.86129L28.3528 3.06996C28.5861 3.15766 28.798 3.29421 28.9743 3.47047C29.1505 3.64673 29.2871 3.85863 29.3748 4.09196Z" fill="black"/>
<path d="M26.5874 29.435V30.8236C26.5874 30.9127 26.605 31.0009 26.6392 31.0831C26.6734 31.1653 26.7234 31.24 26.7866 31.3028C26.8497 31.3656 26.9246 31.4154 27.007 31.4491C27.0894 31.4829 27.1777 31.5001 27.2667 31.4996H29.8667C30.046 31.4996 30.218 31.4284 30.3447 31.3016C30.4715 31.1749 30.5427 31.0029 30.5427 30.8236V28.147C30.1136 28.5782 29.5994 28.9154 29.0329 29.1371C28.4664 29.3588 27.8599 29.4603 27.2521 29.435H26.5874Z" fill="black"/>
<path d="M1.42139 28.1079V30.8239C1.42139 31.0032 1.49261 31.1751 1.61938 31.3019C1.74616 31.4287 1.9181 31.4999 2.09739 31.4999H4.69739C4.87667 31.4999 5.04862 31.4287 5.17539 31.3019C5.30217 31.1751 5.37339 31.0032 5.37339 30.8239V29.4352H4.75005C4.13292 29.4619 3.51716 29.3573 2.94338 29.1285C2.36961 28.8997 1.85087 28.5519 1.42139 28.1079Z" fill="black"/>
<path d="M1.44092 25.4C1.44092 27.316 2.77425 28.4327 4.75025 28.4327H27.2509C29.2242 28.4327 30.5602 27.316 30.5602 25.4V24.8467H1.44092V25.4Z" fill="black"/>
<path d="M30.8667 13.0666L29.2 12.7773C29.0669 12.7541 28.9299 12.7764 28.811 12.8408C28.6922 12.9052 28.5986 13.0078 28.5454 13.132L28.0267 14.3046L27.816 13.9833L26.3547 10.5333C26.119 9.97361 25.7447 9.48314 25.2671 9.10805C24.7895 8.73297 24.2243 8.48561 23.6247 8.38929C21.1014 8.00619 18.5522 7.82007 16 7.83263C13.4481 7.8207 10.899 8.00749 8.37603 8.39129C7.77586 8.48715 7.20999 8.73428 6.73177 9.10939C6.25355 9.4845 5.87875 9.97522 5.6427 10.5353L4.1847 13.98L3.97737 14.2966L3.45537 13.1286C3.40213 13.0044 3.30852 12.9018 3.1897 12.8375C3.07088 12.7731 2.93382 12.7507 2.8007 12.774L1.13337 13.0666C0.979341 13.0915 0.839231 13.1705 0.738186 13.2894C0.637141 13.4083 0.581778 13.5593 0.582032 13.7153V14.0426C0.582063 14.1929 0.633449 14.3386 0.727666 14.4556C0.821883 14.5726 0.953269 14.6539 1.10003 14.686L3.3827 15.208L2.28937 16.8746C1.73605 17.7185 1.44131 18.7056 1.44137 19.7146V23.848H30.56V19.7146C30.5599 18.7055 30.2649 17.7184 29.7114 16.8746L28.614 15.2L30.9007 14.6846C31.0475 14.6525 31.1789 14.5713 31.2731 14.4542C31.3673 14.3372 31.4187 14.1915 31.4187 14.0413V13.714C31.4186 13.5581 31.363 13.4073 31.2619 13.2887C31.1607 13.1701 31.0206 13.0913 30.8667 13.0666ZM6.56603 10.926C6.73447 10.5215 7.00373 10.1669 7.34812 9.896C7.69252 9.62513 8.10058 9.44701 8.53337 9.37863C11.0044 9.00358 13.5008 8.82104 16 8.83263C18.4993 8.82104 20.9957 9.00358 23.4667 9.37863C23.8992 9.44722 24.3069 9.62536 24.651 9.89609C24.9951 10.1668 25.2642 10.5211 25.4327 10.9253L26.556 13.5746H5.4427L6.56603 10.926ZM4.44537 20.5926C4.24939 20.5641 4.0665 20.4773 3.92042 20.3436C3.77433 20.2098 3.67177 20.0353 3.62603 19.8426C3.56577 19.6179 3.54213 19.3849 3.55603 19.1526C3.61003 18.5526 3.7987 18.2573 4.18003 18.2573C4.18003 18.2573 6.7947 18.42 7.14803 18.5286C7.50137 18.6373 8.85737 21.2153 8.85737 21.2153L4.44537 20.5926ZM21.1947 21.5926L15.968 21.8913L10.8054 21.6L9.4887 18.8073C9.4887 18.8073 14.1267 19.2113 15.9994 19.2113C17.872 19.2113 22.5114 18.8073 22.5114 18.8073L21.1947 21.5926ZM28.3734 19.8453C28.3276 20.038 28.2251 20.2125 28.079 20.3462C27.9329 20.48 27.75 20.5667 27.554 20.5953L23.142 21.218C23.142 21.218 24.4987 18.64 24.852 18.5313C25.2054 18.4226 27.8194 18.26 27.8194 18.26C28.2014 18.26 28.3894 18.558 28.4434 19.1553C28.4573 19.3876 28.4336 19.6205 28.3734 19.8453Z" fill="black"/>
</g>
<defs>
<clipPath id="clip0_10_269">
<rect width="32" height="32" fill="white"/>
</clipPath>
</defs>
</svg>
