<svg width="32" height="32" viewBox="0 0 32 32" fill="none" xmlns="http://www.w3.org/2000/svg">
<path d="M15.8621 30.9844L15.3966 30.7729C11.2877 28.9052 7.76385 26.1357 4.92352 22.5406C3.95508 21.3153 3.42188 19.7743 3.42188 18.2014V0.984375L5.05298 1.6842C7.0415 2.53748 8.65155 2.93481 10.1191 2.93481C12.6885 2.93481 15.2369 1.37256 15.2624 1.35681L15.8621 0.985107L16.4724 1.3407C16.4974 1.35516 19.1409 2.87732 21.7006 2.87732C23.5503 2.87732 25.3233 2.23718 26.6613 1.67944L28.2812 1.00452V18.3668C28.2812 19.8514 27.8227 21.271 26.9555 22.4733C24.3069 26.1429 20.733 28.94 16.3336 30.7864L15.8621 30.9844ZM5.76141 4.46979V18.2014C5.76141 19.2501 6.11572 20.276 6.75934 21.0903C9.25854 24.2532 12.3318 26.7189 15.8996 28.4257C19.6804 26.7499 22.7598 24.2884 25.0582 21.1038C25.6359 20.3031 25.9415 19.3564 25.9415 18.3668V4.45441C24.6896 4.87518 23.2432 5.21686 21.7006 5.21686C19.2986 5.21686 16.9689 4.21619 15.8974 3.68262C14.8423 4.23853 12.5502 5.27454 10.1191 5.27454C8.53052 5.27472 7.01935 4.90192 5.76141 4.46979ZM23.1127 11.7755L21.4583 10.1212L14.5794 17.0004L10.771 13.192L9.11645 14.8464L14.5794 20.3091L23.1127 11.7755Z" fill="black"/>
</svg>
