<svg width="32" height="32" viewBox="0 0 32 32" fill="none" xmlns="http://www.w3.org/2000/svg">
<g clip-path="url(#clip0_10_443)">
<path d="M16 0C7.16375 0 0 7.16375 0 16C0 24.8363 7.16375 32 16 32C24.8363 32 32 24.8363 32 16C32 7.16375 24.8363 0 16 0ZM23.6775 12.3806L14.865 21.1931C14.6922 21.3661 14.4869 21.5033 14.261 21.5969C14.0351 21.6905 13.793 21.7387 13.5484 21.7387C13.3039 21.7387 13.0618 21.6905 12.8359 21.5969C12.61 21.5033 12.4047 21.3661 12.2319 21.1931L8.1875 17.1494C7.83833 16.8002 7.64216 16.3266 7.64216 15.8328C7.64216 15.339 7.83833 14.8654 8.1875 14.5162C8.53667 14.1671 9.01026 13.9709 9.50406 13.9709C9.99787 13.9709 10.4715 14.1671 10.8206 14.5162L13.5463 17.2419L21.0444 9.75C21.2173 9.57711 21.4226 9.43997 21.6485 9.34641C21.8745 9.25286 22.1166 9.20473 22.3612 9.20475C22.6057 9.20478 22.8478 9.25298 23.0737 9.34658C23.2997 9.44019 23.5049 9.57738 23.6778 9.75031C23.8507 9.92325 23.9878 10.1285 24.0814 10.3545C24.175 10.5804 24.2231 10.8226 24.2231 11.0671C24.223 11.3116 24.1748 11.5538 24.0812 11.7797C23.9876 12.0056 23.8504 12.2109 23.6775 12.3837V12.3806Z" fill="black"/>
</g>
<defs>
<clipPath id="clip0_10_443">
<rect width="32" height="32" fill="white"/>
</clipPath>
</defs>
</svg>
