<svg width="32" height="32" viewBox="0 0 32 32" fill="none" xmlns="http://www.w3.org/2000/svg">
<path d="M22.9998 4.34667V6.33333C22.9998 8.17333 21.5065 9.66667 19.6665 9.66667H12.3332C10.4932 9.66667 8.99984 8.17333 8.99984 6.33333V4.34667C7.13317 4.52 5.6665 6.08 5.6665 8V25.3333C5.6665 27.36 7.3065 29 9.33317 29H22.6665C24.6932 29 26.3332 27.36 26.3332 25.3333V8C26.3332 6.08 24.8665 4.52 22.9998 4.34667ZM17.3332 23.6667H11.9998C11.4532 23.6667 10.9998 23.2133 10.9998 22.6667C10.9998 22.12 11.4532 21.6667 11.9998 21.6667H17.3332C17.8798 21.6667 18.3332 22.12 18.3332 22.6667C18.3332 23.2133 17.8798 23.6667 17.3332 23.6667ZM19.9998 19.6667H11.9998C11.4532 19.6667 10.9998 19.2133 10.9998 18.6667C10.9998 18.12 11.4532 17.6667 11.9998 17.6667H19.9998C20.5465 17.6667 20.9998 18.12 20.9998 18.6667C20.9998 19.2133 20.5465 19.6667 19.9998 19.6667ZM19.9998 15.6667H11.9998C11.4532 15.6667 10.9998 15.2133 10.9998 14.6667C10.9998 14.12 11.4532 13.6667 11.9998 13.6667H19.9998C20.5465 13.6667 20.9998 14.12 20.9998 14.6667C20.9998 15.2133 20.5465 15.6667 19.9998 15.6667ZM10.9998 6.33333V4.33333C10.9998 3.59733 11.5972 3 12.3332 3H19.6665C20.4025 3 20.9998 3.59733 20.9998 4.33333V6.33333C20.9998 7.06933 20.4025 7.66667 19.6665 7.66667H12.3332C11.5972 7.66667 10.9998 7.06933 10.9998 6.33333Z" fill="black"/>
</svg>
