<svg width="32" height="32" viewBox="0 0 32 32" fill="none" xmlns="http://www.w3.org/2000/svg">
<g clip-path="url(#clip0_10_606)">
<path d="M21 1C15.668 1 10 2.752 10 6V10C10 10.552 10.448 11 11 11C11.552 11 12 10.552 12 10V8.958C14.122 10.296 17.626 11 21 11C24.374 11 27.878 10.296 30 8.958V10C30 10.978 27.54 12.538 22.916 12.924C22.368 12.968 21.958 13.454 22.004 14.004C22.046 14.526 22.484 14.92 22.998 14.92C23.028 14.92 23.054 14.918 23.084 14.916C25.688 14.698 28.282 14.024 30 12.93V14C30 14.854 28.188 16.082 24.826 16.676C24.284 16.772 23.92 17.292 24.016 17.834C24.102 18.318 24.524 18.66 24.998 18.66C25.056 18.66 25.116 18.656 25.174 18.644C27.208 18.286 28.836 17.7 30 16.956V18C30 18.854 28.188 20.082 24.826 20.676C24.284 20.772 23.92 21.292 24.016 21.834C24.102 22.318 24.524 22.66 24.998 22.66C25.056 22.66 25.116 22.656 25.174 22.644C27.208 22.286 28.836 21.698 30 20.956V22C30 22.854 28.188 24.082 24.826 24.676C24.284 24.772 23.92 25.292 24.016 25.834C24.102 26.318 24.524 26.66 24.998 26.66C25.056 26.66 25.116 26.656 25.174 26.644C27.208 26.286 28.836 25.698 30 24.956V26C30 26.978 27.54 28.538 22.916 28.924C22.368 28.968 21.958 29.454 22.004 30.004C22.046 30.526 22.484 30.92 22.998 30.92C23.028 30.92 23.054 30.918 23.084 30.916C27.522 30.544 32 28.882 32 26V6C32 2.752 26.332 1 21 1ZM21 9C15.506 9 12 7.222 12 6C12 4.778 15.506 3 21 3C26.494 3 30 4.778 30 6C30 7.222 26.494 9 21 9Z" fill="black"/>
<path d="M11 13C5.668 13 0 14.752 0 18V26C0 29.248 5.668 31 11 31C16.332 31 22 29.248 22 26V18C22 14.752 16.332 13 11 13ZM20 26C20 27.222 16.494 29 11 29C5.506 29 2 27.222 2 26V24.958C4.122 26.296 7.626 27 11 27C14.374 27 17.878 26.296 20 24.958V26ZM20 22C20 23.222 16.494 25 11 25C5.506 25 2 23.222 2 22V20.958C4.122 22.296 7.626 23 11 23C14.374 23 17.878 22.296 20 20.958V22ZM11 21C5.506 21 2 19.222 2 18C2 16.778 5.506 15 11 15C16.494 15 20 16.778 20 18C20 19.222 16.494 21 11 21Z" fill="black"/>
</g>
<defs>
<clipPath id="clip0_10_606">
<rect width="32" height="32" fill="white"/>
</clipPath>
</defs>
</svg>
