<svg width="32" height="32" viewBox="0 0 32 32" fill="none" xmlns="http://www.w3.org/2000/svg">
<g clip-path="url(#clip0_10_456)">
<path d="M28.5 5H3.5C1.57012 5 0 6.57012 0 8.5V23.5C0 25.4299 1.57012 27 3.5 27H28.5C30.4299 27 32 25.4299 32 23.5V8.5C32 6.57012 30.4299 5 28.5 5ZM3.5 7H28.5C29.3271 7 30 7.67294 30 8.5V10.5H2V8.5C2 7.67294 2.67294 7 3.5 7ZM28.5 25H3.5C2.67294 25 2 24.3271 2 23.5V12.5H30V23.5C30 24.3271 29.3271 25 28.5 25Z" fill="black"/>
<path d="M7 22H6C5.44775 22 5 21.5522 5 21V20C5 19.4477 5.44775 19 6 19H7C7.55225 19 8 19.4477 8 20V21C8 21.5522 7.55225 22 7 22Z" fill="black"/>
</g>
<defs>
<clipPath id="clip0_10_456">
<rect width="32" height="32" fill="white"/>
</clipPath>
</defs>
</svg>
