<svg width="32" height="32" viewBox="0 0 32 32" fill="none" xmlns="http://www.w3.org/2000/svg">
<g clip-path="url(#clip0_10_418)">
<path d="M25.519 6.15723L23.4788 29.4057H8.52183L6.48209 6.15723L3.89746 6.38379L5.97446 30.0539C6.08377 31.1448 7.0304 32.0002 8.13009 32.0002H23.8706C24.9699 32.0002 25.9169 31.1453 26.028 30.0383L28.1037 6.38379L25.519 6.15723Z" fill="black"/>
<path d="M20.7567 0H11.2432C10.051 0 9.08105 0.969937 9.08105 2.16219V6.27031H11.6756V2.59456H20.3242V6.27025H22.9188V2.16212C22.9189 0.969937 21.949 0 20.7567 0Z" fill="black"/>
<path d="M29.8382 4.97314H2.16255C1.44598 4.97314 0.865234 5.55389 0.865234 6.27046C0.865234 6.98702 1.44598 7.56777 2.16255 7.56777H29.8382C30.5548 7.56777 31.1355 6.98702 31.1355 6.27046C31.1355 5.55389 30.5547 4.97314 29.8382 4.97314Z" fill="black"/>
</g>
<defs>
<clipPath id="clip0_10_418">
<rect width="32" height="32" fill="white"/>
</clipPath>
</defs>
</svg>
