<svg width="32" height="32" viewBox="0 0 32 32" fill="none" xmlns="http://www.w3.org/2000/svg">
<g clip-path="url(#clip0_10_126)">
<path d="M20.6875 24.4375H16.9375V27.25C16.9375 27.7682 16.5182 28.1875 16 28.1875C15.4818 28.1875 15.0625 27.7682 15.0625 27.25V24.4375H11.3125V32H20.6875V24.4375Z" fill="black"/>
<path d="M3.8125 27.25V31.0625C3.8125 31.5807 4.23181 32 4.75 32H9.4375V23.5C9.4375 22.9818 9.85681 22.5625 10.375 22.5625H21.625C22.1432 22.5625 22.5625 22.9818 22.5625 23.5V32H27.25C27.7682 32 28.1875 31.5807 28.1875 31.0625V27.25C28.1875 22.5492 25.0226 18.5813 20.7142 17.3442C20.3628 17.5786 19.9944 17.7922 19.6044 17.9748C19.1531 19.5394 17.7084 20.6875 16 20.6875C14.2916 20.6875 12.8469 19.5394 12.3956 17.9748C12.0056 17.7922 11.6372 17.5786 11.2857 17.3442C6.97737 18.5813 3.8125 22.5492 3.8125 27.25Z" fill="black"/>
<path d="M22.5625 4.75C22.5625 2.16112 20.4639 0 17.875 0H14.125C11.5361 0 9.4375 2.16112 9.4375 4.75V5.6875H22.5625V4.75Z" fill="black"/>
<path d="M9.4375 10.375C9.4375 13.3431 11.4207 15.8219 14.125 16.6327V16.9375C14.125 17.9729 14.9644 18.8125 16 18.8125C17.0356 18.8125 17.875 17.9729 17.875 16.9375V16.6327C20.5793 15.8219 22.5625 13.3431 22.5625 10.375V7.90674C21.1987 10.0036 18.4996 11.3125 16 11.3125C13.5004 11.3125 10.8013 10.0036 9.4375 7.90674V10.375Z" fill="black"/>
<path d="M20.4547 7.5625H11.5454C12.6653 8.73231 14.4292 9.4375 16 9.4375C17.5708 9.4375 19.3347 8.73231 20.4547 7.5625Z" fill="black"/>
</g>
<defs>
<clipPath id="clip0_10_126">
<rect width="32" height="32" fill="white"/>
</clipPath>
</defs>
</svg>
