<svg width="32" height="32" viewBox="0 0 32 32" fill="none" xmlns="http://www.w3.org/2000/svg">
<g clip-path="url(#clip0_10_109)">
<path d="M22.2662 32C22.2122 31.8211 22.1754 31.6402 22.1055 31.4635C21.1085 28.9421 18.7117 27.3125 15.9999 27.3125C15.5385 27.3125 15.0891 27.3626 14.6543 27.4538L19.2005 32H22.2662Z" fill="black"/>
<path d="M9.74365 32.0002H16.5495L12.7553 28.2061C11.3153 29.0339 10.2312 30.3803 9.74365 32.0002Z" fill="black"/>
<path d="M24.2173 32H28.1875V27.3125C28.1875 24.7279 26.0846 22.625 23.5 22.625H9.82568L13.1638 25.9631C14.0544 25.6426 15.0004 25.4375 16 25.4375C19.4863 25.4375 22.5671 27.5322 23.8488 30.7741C24.0081 31.1769 24.1228 31.5873 24.2173 32Z" fill="black"/>
<path d="M11.379 26.8297L7.33787 22.7886C5.31694 23.3091 3.8125 25.1314 3.8125 27.3125V32H7.78906C8.28106 29.8477 9.58831 28.0081 11.379 26.8297Z" fill="black"/>
<path d="M24.4375 5.625C24.4375 2.471 20.7314 0 16 0C11.2686 0 7.5625 2.471 7.5625 5.625C7.5625 6.36669 7.77762 6.97688 8.10381 7.5H23.8962C24.2224 6.97688 24.4375 6.36669 24.4375 5.625Z" fill="black"/>
<path d="M9.4375 12.4243V14.0626C9.4375 17.6808 12.3818 20.7501 16 20.7501C19.6182 20.7501 22.5625 17.6808 22.5625 14.0626V12.4243C21.0664 13.4422 18.7837 14.0626 16 14.0626C13.2163 14.0626 10.9336 13.4422 9.4375 12.4243Z" fill="black"/>
<path d="M9.4375 9.375C9.4375 10.9283 12.3756 12.1875 16 12.1875C19.6244 12.1875 22.5625 10.9283 22.5625 9.375H9.4375Z" fill="black"/>
</g>
<defs>
<clipPath id="clip0_10_109">
<rect width="32" height="32" fill="white"/>
</clipPath>
</defs>
</svg>
