<svg width="20" height="15" viewBox="0 0 20 15" fill="none" xmlns="http://www.w3.org/2000/svg">
<path fill-rule="evenodd" clip-rule="evenodd" d="M0 1.66667C0 0.746192 0.746192 0 1.66667 0H18.3333C19.2538 0 20 0.746192 20 1.66667V12.3958C20 13.3163 19.2538 14.0625 18.3333 14.0625H1.66667C0.746192 14.0625 0 13.3163 0 12.3958V1.66667ZM1.17188 12.8906H18.8281V1.17188H1.17188V12.8906Z" fill="#1C1C1C"/>
<path fill-rule="evenodd" clip-rule="evenodd" d="M9.95943 8.0821C9.95943 7.07913 9.36678 6.21257 8.51354 5.81261C8.59678 5.5764 8.64256 5.32269 8.64256 5.05835C8.64256 3.8037 7.62182 2.78296 6.36717 2.78296C5.11252 2.78296 4.09178 3.8037 4.09178 5.05835C4.09178 5.32249 4.13752 5.57608 4.22064 5.81214C3.3674 6.21218 2.7749 7.07913 2.7749 8.0821V10.4461C2.7749 10.9064 3.148 11.2795 3.60824 11.2795H9.1261C9.58634 11.2795 9.95943 10.9064 9.95943 10.4461V8.0821ZM6.36717 3.95483C6.97564 3.95483 7.47068 4.44987 7.47068 5.05835C7.47068 5.66683 6.97564 6.16187 6.36717 6.16187C5.75869 6.16187 5.26365 5.66683 5.26365 5.05835C5.26365 4.44987 5.75869 3.95483 6.36717 3.95483ZM3.94678 8.08206V10.1076H8.78756V8.08206C8.78756 7.4762 8.38139 6.96374 7.82717 6.80179C7.43174 7.13347 6.92248 7.3337 6.36717 7.3337C5.81186 7.3337 5.3026 7.13347 4.90717 6.80179C4.35295 6.96374 3.94678 7.4762 3.94678 8.08206Z" fill="#1C1C1C"/>
<rect x="11.6797" y="3.9458" width="3.32031" height="1.17188" rx="0.585938" fill="#1C1C1C"/>
<rect x="11.6797" y="6.44531" width="5.27344" height="1.17188" rx="0.585938" fill="#1C1C1C"/>
<rect x="11.6797" y="8.94482" width="5.27344" height="1.17188" rx="0.585938" fill="#1C1C1C"/>
</svg>
