<svg width="32" height="32" viewBox="0 0 32 32" fill="none" xmlns="http://www.w3.org/2000/svg">
<path d="M26.1797 27.1803C26.4449 27.1803 26.6993 27.075 26.8868 26.8874C27.0743 26.6999 27.1797 26.4455 27.1797 26.1803V23.0703C27.9897 22.8531 28.7054 22.3748 29.2158 21.7094C29.7262 21.0441 30.0029 20.2289 30.0029 19.3903C30.0029 18.5517 29.7262 17.7366 29.2158 17.0712C28.7054 16.4059 27.9897 15.9275 27.1797 15.7103V5.82031C27.1797 5.5551 27.0743 5.30074 26.8868 5.11321C26.6993 4.92567 26.4449 4.82031 26.1797 4.82031C25.9145 4.82031 25.6601 4.92567 25.4726 5.11321C25.285 5.30074 25.1797 5.5551 25.1797 5.82031V15.7203C24.3697 15.9375 23.654 16.4159 23.1436 17.0812C22.6331 17.7466 22.3564 18.5617 22.3564 19.4003C22.3564 20.2389 22.6331 21.0541 23.1436 21.7194C23.654 22.3848 24.3697 22.8631 25.1797 23.0803V26.1903C25.1823 26.4538 25.2888 26.7056 25.4761 26.891C25.6633 27.0763 25.9162 27.1803 26.1797 27.1803ZM24.3497 19.3903C24.3497 19.0284 24.457 18.6746 24.6581 18.3736C24.8592 18.0727 25.145 17.8381 25.4794 17.6996C25.8138 17.5611 26.1817 17.5249 26.5367 17.5955C26.8917 17.6661 27.2178 17.8404 27.4737 18.0963C27.7296 18.3522 27.9039 18.6783 27.9745 19.0333C28.0451 19.3883 28.0089 19.7562 27.8704 20.0906C27.7319 20.425 27.4973 20.7108 27.1964 20.9119C26.8954 21.113 26.5416 21.2203 26.1797 21.2203C25.6943 21.2203 25.2289 21.0275 24.8857 20.6843C24.5425 20.3411 24.3497 19.8757 24.3497 19.3903Z" fill="black"/>
<path d="M15.9999 27.1801C16.2651 27.1801 16.5195 27.0748 16.707 26.8872C16.8946 26.6997 16.9999 26.4453 16.9999 26.1801V12.3201C17.8961 12.0777 18.6738 11.518 19.1882 10.7452C19.7027 9.97231 19.9188 9.0389 19.7966 8.11858C19.6743 7.19825 19.2219 6.35367 18.5235 5.74193C17.8251 5.1302 16.9283 4.79297 15.9999 4.79297C15.0715 4.79297 14.1747 5.1302 13.4763 5.74193C12.778 6.35367 12.3256 7.19825 12.2033 8.11858C12.081 9.0389 12.2972 9.97231 12.8116 10.7452C13.3261 11.518 14.1037 12.0777 14.9999 12.3201V26.1801C14.9999 26.4453 15.1053 26.6997 15.2928 26.8872C15.4804 27.0748 15.7347 27.1801 15.9999 27.1801ZM14.1699 8.65012C14.168 8.28776 14.2736 7.93297 14.4735 7.63071C14.6733 7.32846 14.9585 7.09235 15.2927 6.9523C15.6269 6.81226 15.9951 6.77459 16.3508 6.84407C16.7064 6.91355 17.0334 7.08704 17.2904 7.34257C17.5473 7.5981 17.7226 7.92415 17.794 8.27941C17.8654 8.63466 17.8298 9.00313 17.6916 9.3381C17.5534 9.67307 17.3188 9.95947 17.0177 10.161C16.7165 10.3625 16.3623 10.4701 15.9999 10.4701C15.5163 10.4701 15.0524 10.2787 14.7094 9.93766C14.3665 9.59663 14.1726 9.13373 14.1699 8.65012Z" fill="black"/>
<path d="M4.81982 19.6803V26.1803C4.81982 26.4455 4.92518 26.6999 5.11271 26.8874C5.30025 27.075 5.5546 27.1803 5.81982 27.1803C6.08504 27.1803 6.33939 27.075 6.52693 26.8874C6.71446 26.6999 6.81982 26.4455 6.81982 26.1803V19.6803C7.6298 19.4631 8.3455 18.9848 8.85594 18.3194C9.36639 17.6541 9.64306 16.8389 9.64306 16.0003C9.64306 15.1617 9.36639 14.3466 8.85594 13.6812C8.3455 13.0159 7.6298 12.5375 6.81982 12.3203V5.82031C6.81982 5.5551 6.71446 5.30074 6.52693 5.11321C6.33939 4.92567 6.08504 4.82031 5.81982 4.82031C5.5546 4.82031 5.30025 4.92567 5.11271 5.11321C4.92518 5.30074 4.81982 5.5551 4.81982 5.82031V12.3203C4.00984 12.5375 3.29414 13.0159 2.7837 13.6812C2.27325 14.3466 1.99658 15.1617 1.99658 16.0003C1.99658 16.8389 2.27325 17.6541 2.7837 18.3194C3.29414 18.9848 4.00984 19.4631 4.81982 19.6803ZM5.81982 14.1703C6.18218 14.1683 6.53697 14.274 6.83922 14.4739C7.14148 14.6737 7.37759 14.9588 7.51763 15.293C7.65768 15.6273 7.69534 15.9955 7.62587 16.3512C7.55639 16.7068 7.38289 17.0338 7.12737 17.2907C6.87184 17.5477 6.54578 17.723 6.19053 17.7944C5.83527 17.8658 5.46681 17.8302 5.13184 17.6919C4.79687 17.5537 4.51047 17.3192 4.30894 17.018C4.10741 16.7169 3.99983 16.3627 3.99982 16.0003C3.99981 15.5167 4.19124 15.0527 4.53227 14.7098C4.87331 14.3669 5.33621 14.173 5.81982 14.1703Z" fill="black"/>
</svg>
