<svg width="32" height="32" viewBox="0 0 32 32" fill="none" xmlns="http://www.w3.org/2000/svg">
<g clip-path="url(#clip0_10_322)">
<path d="M25.2663 0.274562L22.4922 3.04862L25.1438 5.70031L27.9021 2.94206H29.0629C29.5806 2.94206 30.0004 2.52231 30.0004 2.00456V0.9375C30.0004 0.41975 29.5806 0 29.0629 0H25.9291C25.6805 0 25.4421 0.09875 25.2663 0.274562Z" fill="black"/>
<path d="M23.605 9.44825L24.2595 8.79368C24.6257 8.42756 24.6257 7.834 24.2595 7.46787L20.724 3.93231C20.3579 3.56618 19.7643 3.56618 19.3982 3.93231L18.7437 4.58681L23.605 9.44825Z" fill="black"/>
<path d="M9.53809 19.9727H13.8462V24.2808H9.53809V19.9727Z" fill="black"/>
<path d="M22.6516 11.1464L17.0451 5.53987C16.5729 5.06768 15.9451 4.80762 15.2773 4.80762H3.4375C1.539 4.80762 0 6.34662 0 8.24512V28.5623C0 30.4608 1.539 31.9998 3.4375 31.9998H19.9464C21.8449 31.9998 23.3839 30.4608 23.3839 28.5623V12.9142C23.3839 12.2464 23.1238 11.6186 22.6516 11.1464ZM17.3214 26.4306C17.6875 26.7967 17.6875 27.3902 17.3214 27.7564C17.1383 27.9394 16.8984 28.031 16.6585 28.031C16.4186 28.031 16.1786 27.9395 15.9956 27.7564L14.3952 26.156H8.98875L7.38837 27.7564C7.20531 27.9394 6.96537 28.031 6.7255 28.031C6.48562 28.031 6.24562 27.9395 6.06262 27.7564C5.6965 27.3902 5.6965 26.7967 6.06262 26.4306L7.663 24.8302V19.4236L6.06262 17.8232C5.6965 17.4571 5.6965 16.8636 6.06262 16.4974C6.42869 16.1313 7.02231 16.1313 7.38844 16.4974L8.98881 18.0978H14.3952L15.9957 16.4974C16.3618 16.1313 16.9554 16.1313 17.3215 16.4974C17.6876 16.8635 17.6876 17.4571 17.3215 17.8232L15.7211 19.4236V24.8301L17.3214 26.4306ZM5.59812 12.2541C4.57744 12.2541 3.75 11.4266 3.75 10.4059C3.75 9.38524 4.57744 8.5578 5.59812 8.5578H14.7595L18.4558 12.2541H5.59812V12.2541Z" fill="black"/>
<path d="M29.6562 15.6876C28.3639 15.6876 27.3125 14.6361 27.3125 13.3438C27.3125 13.0121 27.4068 12.4274 28.2218 11.1853C28.6281 10.5662 29.0297 10.0638 29.0466 10.0427C29.1949 9.85769 29.4192 9.75 29.6562 9.75C29.8933 9.75 30.1176 9.85763 30.2659 10.0427C30.2827 10.0638 30.6844 10.5661 31.0907 11.1853C31.9057 12.4274 32 13.0121 32 13.3438C32 14.6361 30.9486 15.6876 29.6562 15.6876Z" fill="black"/>
</g>
<defs>
<clipPath id="clip0_10_322">
<rect width="32" height="32" fill="white"/>
</clipPath>
</defs>
</svg>
