<svg width="32" height="32" viewBox="0 0 32 32" fill="none" xmlns="http://www.w3.org/2000/svg">
<g clip-path="url(#clip0_16_336)">
<path d="M9.69606 23.6987L8.18213 25.0391C8.66419 25.5814 9.18788 26.0853 9.74854 26.5459L11.0283 24.9815C10.551 24.5899 10.1055 24.1609 9.69606 23.6987Z" fill="black"/>
<path d="M7.70712 20.5762L5.85205 21.3725C6.13888 22.0409 6.47945 22.6849 6.87042 23.2982L8.57309 22.2163C8.24103 21.6936 7.95143 21.1452 7.70712 20.5762Z" fill="black"/>
<path d="M25.2066 4.21145C23.1313 3.00819 20.775 2.37417 18.3761 2.37354C11.553 2.38451 5.78851 7.43744 4.88394 14.2004L1.42713 10.7435L0 12.1707L5.76 17.9307L11.52 12.1707L10.0929 10.7435L6.97114 13.8612C8.15724 7.56846 14.2201 3.42874 20.5129 4.61485C26.8056 5.80095 30.9454 11.8638 29.7593 18.1565C28.5732 24.4492 22.5103 28.5891 16.2175 27.4029C14.9276 27.1598 13.6883 26.6994 12.5525 26.0412L11.5382 27.7863C18.0482 31.5607 26.3854 29.3431 30.1598 22.833C33.9343 16.3231 31.7166 7.98586 25.2066 4.21145Z" fill="black"/>
<path d="M16.8623 6.91553V18.0177L21.3032 21.3483L22.5143 19.7335L18.8809 17.0084V6.91553H16.8623Z" fill="black"/>
</g>
<defs>
<clipPath id="clip0_16_336">
<rect width="32" height="32" fill="white"/>
</clipPath>
</defs>
</svg>
