<svg width="32" height="32" viewBox="0 0 32 32" fill="none" xmlns="http://www.w3.org/2000/svg">
<path d="M29.5 11.5662V26.5002C29.4992 27.2956 29.1829 28.0582 28.6204 28.6207C28.058 29.1831 27.2954 29.4994 26.5 29.5002H21.5C20.9696 29.5002 20.4609 29.2895 20.0858 28.9144C19.7107 28.5393 19.5 28.0306 19.5 27.5002V22.0002C19.5 21.735 19.3946 21.4806 19.2071 21.2931C19.0196 21.1056 18.7652 21.0002 18.5 21.0002H13.5C13.2348 21.0002 12.9804 21.1056 12.7929 21.2931C12.6054 21.4806 12.5 21.735 12.5 22.0002V27.5002C12.5 28.0306 12.2893 28.5393 11.9142 28.9144C11.5391 29.2895 11.0304 29.5002 10.5 29.5002H5.5C4.70459 29.4994 3.94199 29.1831 3.37956 28.6207C2.81712 28.0582 2.50079 27.2956 2.5 26.5002V11.5662C2.50075 11.2208 2.59049 10.8815 2.76057 10.5809C2.93066 10.2804 3.17533 10.0287 3.471 9.85021L14.971 2.95021C15.2819 2.76361 15.6377 2.66504 16.0002 2.66504C16.3628 2.66504 16.7186 2.76361 17.0295 2.95021L28.5295 9.85021C28.8251 10.0287 29.0696 10.2804 29.2396 10.581C29.4096 10.8816 29.4993 11.2209 29.5 11.5662Z" fill="black"/>
</svg>
