<svg width="32" height="32" viewBox="0 0 32 32" fill="none" xmlns="http://www.w3.org/2000/svg">
<g clip-path="url(#clip0_15_180)">
<path d="M16 0C7.15681 0 0 7.156 0 16C0 24.8431 7.156 32 16 32C24.8432 32 32 24.844 32 16C32 7.15694 24.844 0 16 0ZM17.6431 22.3513C17.6431 22.8568 16.9059 23.3622 16.0003 23.3622C15.0526 23.3622 14.3787 22.8568 14.3787 22.3513V14.3271C14.3787 13.7374 15.0526 13.3372 16.0003 13.3372C16.9059 13.3372 17.6431 13.7374 17.6431 14.3271V22.3513ZM16.0004 11.3997C15.0316 11.3997 14.2734 10.6837 14.2734 9.88331C14.2734 9.083 15.0316 8.388 16.0004 8.388C16.9481 8.388 17.7064 9.083 17.7064 9.88331C17.7064 10.6837 16.9481 11.3997 16.0004 11.3997Z" fill="black"/>
</g>
<defs>
<clipPath id="clip0_15_180">
<rect width="32" height="32" fill="white"/>
</clipPath>
</defs>
</svg>
