<svg width="32" height="32" viewBox="0 0 32 32" fill="none" xmlns="http://www.w3.org/2000/svg">
<g clip-path="url(#clip0_10_588)">
<path d="M4.35522 13.7021C4.94995 12.6213 6.08423 11.9502 7.31519 11.9502C8.54639 11.9502 9.68042 12.6213 10.2751 13.7021L10.5425 14.1875H12.7874L13.0544 13.7021C13.6494 12.6213 14.7834 11.9502 16.0144 11.9502C17.2456 11.9502 18.3796 12.6216 18.9746 13.7021L19.2417 14.1875H21.4866L21.7537 13.7021C22.3486 12.6213 23.4827 11.9502 24.7139 11.9502C25.9448 11.9502 27.0789 12.6213 27.6738 13.7021L27.9409 14.1875H30.012L29.8384 13.102C29.3186 9.85034 27.6509 6.87036 25.1423 4.71118C22.8438 2.73291 19.9653 1.5603 16.9521 1.35791V0H15.0771V1.35791C12.0637 1.5603 9.1853 2.73291 6.88672 4.71118C4.37817 6.87036 2.71045 9.85034 2.19067 13.102L2.01709 14.1875H4.08813L4.35522 13.7021ZM16.0144 10.0752C14.7744 10.0752 13.5977 10.5129 12.6714 11.2776C12.8613 9.07275 13.5596 5.49878 16.0144 3.4397C18.46 5.49341 19.1614 9.06811 19.3545 11.2749C18.4285 10.5117 17.2532 10.0752 16.0144 10.0752ZM27.2437 10.7253C26.4814 10.3062 25.6143 10.0752 24.7139 10.0752C23.4199 10.0752 22.1951 10.5518 21.2515 11.3791C21.1028 9.32178 20.5481 6.01929 18.6199 3.479C22.5251 4.32349 25.7468 7.03418 27.2437 10.7253ZM13.4092 3.479C11.481 6.01929 10.9263 9.32153 10.7776 11.3789C9.83398 10.5515 8.60913 10.0752 7.31519 10.0752C6.41479 10.0752 5.54761 10.3059 4.7854 10.7251C6.28198 7.03418 9.50391 4.32349 13.4092 3.479Z" fill="black"/>
<path d="M30.1543 29.2754L30.1538 25.1641C30.1536 23.3406 28.6699 21.8572 26.8464 21.8574L24.6282 21.8577L21.4502 16.7495L8.30078 16.751L5.8457 21.8596L5.18164 21.8599C4.29834 21.8599 3.46777 22.2041 2.84326 22.8286C2.21875 23.4534 1.87476 24.2839 1.875 25.1672L1.87549 29.2786L4.94629 29.2781C5.21069 30.8215 6.55762 32.0002 8.17554 32C9.05078 32 9.87353 31.6589 10.4924 31.04C10.9785 30.554 11.292 29.9416 11.4045 29.2776L20.3896 29.2766C20.5024 29.9407 20.8162 30.5527 21.3022 31.0388C21.9211 31.6575 22.7436 31.9983 23.6189 31.9983C23.6191 31.9983 23.6194 31.9983 23.6194 31.9983C24.4946 31.9983 25.3176 31.6572 25.9365 31.0383C26.4224 30.5522 26.7361 29.9399 26.8486 29.2759L30.1543 29.2754ZM22.4202 21.8579L15.8145 21.8586L15.8142 18.625L20.4084 18.6245L22.4202 21.8579ZM9.48022 18.6257L13.9392 18.6252L13.9397 21.8589L7.92602 21.8596L9.48022 18.6257ZM3.75 25.167C3.75 24.7844 3.89893 24.4248 4.16919 24.1543C4.4397 23.8838 4.79932 23.7349 5.18188 23.7349L26.8464 23.7324C27.6362 23.7322 28.2786 24.3745 28.2788 25.1643L28.279 27.4006H26.6169C26.1079 26.2498 24.9558 25.4443 23.6186 25.4446C22.7434 25.4446 21.9204 25.7854 21.3015 26.4045C21.0095 26.6965 20.7803 27.0344 20.6186 27.4014L11.1748 27.4023C11.0132 27.0354 10.7839 26.6978 10.4919 26.4058C9.87305 25.7869 9.05029 25.446 8.17505 25.446C8.17505 25.446 8.1748 25.446 8.17456 25.446C7.29932 25.4463 6.47656 25.7871 5.85767 26.4062C5.56567 26.6982 5.33643 27.0361 5.1748 27.4031L3.75024 27.4033L3.75 25.167ZM9.1665 29.7144C8.90161 29.979 8.5498 30.125 8.17529 30.125C7.40234 30.125 6.77344 29.4963 6.77319 28.7231C6.77319 28.3489 6.91894 27.9968 7.18359 27.7319C7.44849 27.4673 7.80029 27.3213 8.1748 27.3213C8.17505 27.3213 8.17505 27.3213 8.17505 27.3213C8.54931 27.3213 8.90137 27.467 9.16626 27.7317C9.43091 27.9966 9.5769 28.3484 9.5769 28.7229C9.5769 29.0974 9.43115 29.4495 9.1665 29.7144ZM24.6103 29.7124C24.3457 29.9773 23.9936 30.123 23.6191 30.1233C23.6191 30.1233 23.6191 30.1233 23.6189 30.1233C23.2446 30.1233 22.8926 29.9775 22.6279 29.7126C22.363 29.448 22.2173 29.0959 22.2173 28.7214C22.2173 28.3472 22.363 27.9949 22.6277 27.7302C22.8923 27.4653 23.2444 27.3196 23.6189 27.3196C24.3918 27.3196 25.0207 27.9482 25.021 28.7212C25.021 29.0957 24.8752 29.4478 24.6103 29.7124Z" fill="black"/>
</g>
<defs>
<clipPath id="clip0_10_588">
<rect width="32" height="32" fill="white"/>
</clipPath>
</defs>
</svg>
