<svg width="32" height="32" viewBox="0 0 32 32" fill="none" xmlns="http://www.w3.org/2000/svg">
<g clip-path="url(#clip0_10_85)">
<path d="M19 0H3.66667C1.64 0 0 1.64 0 3.66667V24.3333C0 26.36 1.64 28 3.66667 28H14.5333C13.4133 26.2267 12.6667 24.1333 12.6667 21.7333V18.48C12.4667 18.6 12.24 18.6667 12 18.6667H5.33333C4.6 18.6667 4 18.0667 4 17.3333C4 16.6 4.6 16 5.33333 16H12C12.2533 16 12.48 16.0667 12.68 16.1867C12.7333 15.0533 13.2667 14.0133 14.1067 13.3333H5.33333C4.6 13.3333 4 12.7333 4 12C4 11.2667 4.6 10.6667 5.33333 10.6667H17.3333C17.8933 10.6667 18.3733 11.0133 18.5733 11.5067L22.3733 10.2133C22.4667 10.1733 22.56 10.1467 22.6667 10.1333V3.66667C22.6667 1.64 21.0267 0 19 0ZM10.6667 8H5.33333C4.6 8 4 7.4 4 6.66667C4 5.93333 4.6 5.33333 5.33333 5.33333H10.6667C11.4 5.33333 12 5.93333 12 6.66667C12 7.4 11.4 8 10.6667 8Z" fill="black"/>
<path d="M31.096 15.1188L24.096 12.7375C23.8174 12.6428 23.5147 12.6428 23.236 12.7375L16.236 15.1188C15.696 15.3028 15.332 15.8108 15.332 16.3815V21.7388C15.332 28.4948 22.824 31.7588 23.1427 31.8948C23.3107 31.9655 23.4894 32.0002 23.6667 32.0002C23.844 32.0002 24.0227 31.9655 24.1894 31.8935C24.508 31.7575 32 28.4948 32 21.7388V16.3815C32 15.8095 31.6374 15.3028 31.096 15.1188ZM28.4 20.1335L24.4 25.4668C24.168 25.7762 23.8147 25.9695 23.428 25.9962C23.396 25.9988 23.364 26.0002 23.3334 26.0002C22.98 26.0002 22.6414 25.8615 22.3907 25.6095L19.724 22.9428C19.2027 22.4215 19.2027 21.5788 19.724 21.0575C20.2454 20.5362 21.088 20.5362 21.6094 21.0575L23.1894 22.6375L26.2667 18.5335C26.708 17.9455 27.544 17.8242 28.132 18.2668C28.7227 18.7082 28.8427 19.5442 28.4 20.1335Z" fill="black"/>
</g>
<defs>
<clipPath id="clip0_10_85">
<rect width="32" height="32" fill="white"/>
</clipPath>
</defs>
</svg>
