<svg width="32" height="32" viewBox="0 0 32 32" fill="none" xmlns="http://www.w3.org/2000/svg">
<path d="M29.1098 1.38146C28.9997 1.31351 28.8728 1.27734 28.7435 1.27734H7.85572C6.05996 1.27734 4.59901 2.72404 4.59901 4.49706L4.47626 22.4846H0.701428C0.313999 22.4846 0 22.7986 0 23.186V26.4266C0.00246596 28.8062 1.93085 30.7346 4.3105 30.7373C4.35872 30.7373 4.40722 30.7324 4.45462 30.7225H21.8821C21.9859 30.7299 22.0906 30.7349 22.1961 30.7349C24.6127 30.7305 26.5696 28.7709 26.5704 26.3542V15.8394H31.2985C31.6859 15.8394 31.9999 15.5254 31.9999 15.1379V4.72558C31.9914 3.05119 30.7653 1.63217 29.1098 1.38146ZM1.40286 26.4268V23.8877H17.8218V26.3545C17.8209 27.4535 18.2344 28.5122 18.9799 29.3197H4.2146C4.18144 29.32 4.14857 29.3224 4.11596 29.3273C2.59008 29.2235 1.40477 27.9563 1.40286 26.4268ZM25.1676 4.72558V26.3542C25.1662 27.1384 24.8547 27.8897 24.3009 28.4445C23.7708 28.9884 23.0504 29.306 22.2914 29.3301C22.2536 29.3235 22.2153 29.3202 22.1766 29.32H21.93C20.4022 29.1695 19.2348 27.89 19.2246 26.3548V23.186C19.2246 22.7989 18.9106 22.4846 18.5232 22.4846H5.87912L6.00187 4.502C6.01201 3.48766 6.84112 2.67253 7.85572 2.6802H25.8643C25.4125 3.26628 25.1673 3.98551 25.1676 4.72558ZM30.5971 14.4365H26.5704V4.72558C26.5888 3.62658 27.4848 2.74569 28.5838 2.74569C29.6827 2.74569 30.5787 3.62658 30.5971 4.72558V14.4365Z" fill="black"/>
<path d="M9.00563 8.87649H15.6489C16.0364 8.87649 16.3503 8.56249 16.3503 8.17506C16.3503 7.78763 16.0364 7.47363 15.6489 7.47363H9.00563C8.6182 7.47363 8.3042 7.78763 8.3042 8.17506C8.3042 8.56249 8.6182 8.87649 9.00563 8.87649Z" fill="black"/>
<path d="M21.3979 12.4888H9.00563C8.6182 12.4888 8.3042 12.8028 8.3042 13.1902C8.3042 13.5774 8.6182 13.8916 9.00563 13.8916H21.3979C21.7853 13.8916 22.0993 13.5774 22.0993 13.1902C22.0993 12.8028 21.7853 12.4888 21.3979 12.4888Z" fill="black"/>
<path d="M21.3979 17.5039H9.00563C8.6182 17.5039 8.3042 17.8182 8.3042 18.2053C8.3042 18.5928 8.6182 18.9068 9.00563 18.9068H21.3979C21.7853 18.9068 22.0993 18.5928 22.0993 18.2053C22.0993 17.8182 21.7853 17.5039 21.3979 17.5039Z" fill="black"/>
</svg>
