<svg width="32" height="32" viewBox="0 0 32 32" fill="none" xmlns="http://www.w3.org/2000/svg">
<g clip-path="url(#clip0_10_592)">
<path d="M5.3333 20.7998H3.19997C2.61086 20.7998 2.1333 21.2774 2.1333 21.8665V22.9331C2.1333 23.5222 2.61086 23.9998 3.19997 23.9998H5.3333C5.9224 23.9998 6.39997 23.5222 6.39997 22.9331V21.8665C6.39997 21.2774 5.9224 20.7998 5.3333 20.7998ZM3.19997 22.9331V21.8665H5.3333V22.9331H3.19997Z" fill="black"/>
<path d="M16.5333 20.7998H9.06667C8.47756 20.7998 8 21.2774 8 21.8665V22.9331C8 23.5222 8.47756 23.9998 9.06667 23.9998H16.5333C17.1224 23.9998 17.6 23.5222 17.6 22.9331V21.8665C17.6 21.2774 17.1224 20.7998 16.5333 20.7998ZM13.3333 21.8665H14.4V22.9331H13.3333V21.8665ZM12.2667 22.9331H11.2V21.8665H12.2667V22.9331ZM9.06667 21.8665H10.1333V22.9331H9.06667V21.8665ZM15.4667 22.9331V21.8665H16.5333V22.9331H15.4667Z" fill="black"/>
<path d="M19.2002 21.8665V22.9331C19.2002 23.5222 19.6778 23.9998 20.2669 23.9998H22.4002C22.9893 23.9998 23.4669 23.5222 23.4669 22.9331V21.8665C23.4669 21.2774 22.9893 20.7998 22.4002 20.7998H20.2669C19.6778 20.7998 19.2002 21.2774 19.2002 21.8665ZM22.4002 22.9331H20.2669V21.8665H22.4002V22.9331Z" fill="black"/>
<path d="M29.3333 0H12.2667C10.7946 0.00176326 9.60177 1.19464 9.60001 2.66667V11.2H7.86508C6.76376 11.2042 5.77682 11.8809 5.37601 12.9067L4.18721 16H2.66668C1.78484 16.0044 1.07105 16.7182 1.06668 17.6C1.06863 18.1908 1.39697 18.7322 1.92001 19.0069L1.00001 19.7429C0.366157 20.2478 -0.00216892 21.0147 9.60987e-06 21.8251V26.6667C0.00364418 27.6365 0.660978 28.4818 1.60001 28.7243V30.4C1.60001 31.2837 2.31635 32 3.20001 32H5.33334C6.217 32 6.93334 31.2837 6.93334 30.4V28.8H18.6667V30.4C18.6667 31.2837 19.383 32 20.2667 32H22.4C23.2837 32 24 31.2837 24 30.4V28.7243C24.939 28.4818 25.5964 27.6365 25.6 26.6667V21.8251C25.6011 21.0154 25.2327 20.2496 24.5995 19.7451L23.68 19.0069C24.2031 18.7322 24.5314 18.1908 24.5333 17.6C24.529 16.7182 23.8152 16.0044 22.9333 16H21.4123L21.0021 14.9333H29.3333C30.8054 14.9316 31.9982 13.7387 32 12.2667V2.66667C31.9982 1.19464 30.8054 0.00176326 29.3333 0ZM6.37174 13.2923C6.61175 12.6762 7.20395 12.2695 7.86508 12.2667H17.7349C18.3961 12.2695 18.9883 12.6762 19.2283 13.2923L21.0901 18.1333H4.50988L6.37174 13.2923ZM2.29654 17.2203C2.39382 17.1207 2.52752 17.0653 2.66668 17.0667H3.77708L3.36694 18.1333H2.66668C2.37212 18.1333 2.13334 17.8946 2.13334 17.6C2.13288 17.4563 2.19196 17.3188 2.29654 17.2203ZM1.06668 26.6667V26.1333H8.53334V27.7333H2.13334C1.54424 27.7333 1.06668 27.2558 1.06668 26.6667ZM5.86668 30.4C5.86668 30.6946 5.6279 30.9333 5.33334 30.9333H3.20001C2.90546 30.9333 2.66668 30.6946 2.66668 30.4V28.8H5.86668V30.4ZM9.60001 27.7333V26.1333H16V27.7333H9.60001ZM22.9333 30.4C22.9333 30.6946 22.6946 30.9333 22.4 30.9333H20.2667C19.9721 30.9333 19.7333 30.6946 19.7333 30.4V28.8H22.9333V30.4ZM24.5333 26.6667C24.5333 27.2558 24.0558 27.7333 23.4667 27.7333H17.0667V26.1333H24.5333V26.6667ZM24.5333 21.8251L24.5334 25.0667H1.06667L1.06668 21.8251C1.06569 21.3389 1.28686 20.8789 1.66721 20.576L3.24108 19.3168C3.33541 19.2414 3.45256 19.2002 3.57334 19.2H22.0267C22.1478 19.1999 22.2654 19.2411 22.36 19.3168L23.9339 20.576C24.314 20.8789 24.5348 21.339 24.5333 21.8251ZM22.9333 17.0667C23.077 17.0662 23.2145 17.1253 23.3131 17.2299C23.4126 17.3271 23.4681 17.4608 23.4667 17.6C23.4667 17.8946 23.2279 18.1333 22.9333 18.1333H22.2331L21.8229 17.0667L22.9333 17.0667ZM30.9333 12.2667C30.9333 13.1503 30.217 13.8667 29.3333 13.8667H20.592L20.2235 12.9067C19.823 11.8809 18.8362 11.2041 17.7349 11.2H10.6667V2.66667C10.6667 1.78301 11.383 1.06667 12.2667 1.06667H29.3333C30.217 1.06667 30.9333 1.78301 30.9333 2.66667V12.2667Z" fill="black"/>
<path d="M27.3529 10.6557H26.6788C26.4495 10.4443 26.3678 10.1169 26.4708 9.82261C27.1852 9.5041 27.7666 8.94716 28.1156 8.24714C28.7893 8.16957 29.3019 7.60574 29.3151 6.92768C29.3105 6.43686 29.0351 5.98873 28.5993 5.76288C28.842 4.77088 28.8127 3.40448 27.6132 2.73354C26.8809 2.32448 25.8223 2.36661 24.7017 2.41354C23.5119 2.46101 22.1609 2.51541 21.8217 1.88021C21.7112 1.67381 21.479 1.56364 21.2492 1.60859C21.0194 1.65354 20.8458 1.8431 20.8212 2.07594C20.81 2.17834 20.6132 4.16981 21.6745 5.26208V5.69621C21.1632 5.89145 20.8232 6.37933 20.8169 6.92661C20.8301 7.60485 21.343 8.16875 22.0169 8.24608C22.3652 8.94655 22.9466 9.50381 23.6612 9.82208C23.7639 10.1162 23.6822 10.4433 23.4532 10.6546H22.7801C22.4856 10.6546 22.2468 10.8934 22.2468 11.1879C22.2468 11.4825 22.4856 11.7213 22.7801 11.7213H23.186C23.4665 12.5193 24.2203 13.0533 25.0663 13.0533C25.9122 13.0533 26.666 12.5193 26.9465 11.7213H27.3529C28.0552 11.6958 28.6714 12.1855 28.8052 12.8754C28.8473 13.167 29.1178 13.3693 29.4095 13.3271C29.7011 13.285 29.9033 13.0145 29.8612 12.7229C29.6492 11.5096 28.5843 10.632 27.3529 10.6557ZM22.8729 7.53248C22.7785 7.31466 22.5614 7.17586 22.3241 7.18154C22.2859 7.1814 22.2479 7.18533 22.2105 7.19328C22.1039 7.21243 21.9961 7.1662 21.9364 7.07573C21.8768 6.98526 21.8768 6.86796 21.9364 6.77749C21.9961 6.68702 22.1039 6.64079 22.2105 6.65994C22.5051 6.65994 22.7439 6.42116 22.7439 6.12661V5.85994C23.0137 5.87875 23.2549 5.69254 23.305 5.42671C23.3552 5.16087 23.1983 4.89962 22.9401 4.81888C22.2649 4.60874 22.0079 3.88768 21.9161 3.25301C22.8372 3.50366 23.797 3.57946 24.746 3.47648C25.6687 3.43861 26.6249 3.40074 27.0927 3.66261C28.0921 4.22154 27.4356 5.91221 27.4297 5.92821C27.3637 6.09249 27.3835 6.27883 27.4825 6.42558C27.5816 6.57232 27.7471 6.66033 27.9241 6.66048C28.0868 6.64618 28.231 6.76476 28.2484 6.92714C28.2484 7.07328 28.098 7.20128 27.8751 7.18794C27.614 7.1345 27.3533 7.28076 27.2628 7.53141C26.9214 8.44837 26.046 9.05654 25.0676 9.05654C24.0891 9.05654 23.2138 8.44837 22.8724 7.53141L22.8729 7.53248ZM25.0665 11.9874C24.6858 11.9988 24.3406 11.7652 24.2095 11.4077C24.5673 11.0686 24.7673 10.5955 24.7615 10.1026C24.8628 10.1117 24.9636 10.1239 25.0665 10.1239C25.1695 10.1239 25.2703 10.1117 25.3716 10.1026C25.3655 10.5956 25.5656 11.0687 25.9236 11.4077C25.7923 11.7651 25.4472 11.9986 25.0665 11.9874Z" fill="black"/>
<path d="M12.8001 3.19971H12.2667C11.9722 3.19971 11.7334 3.43849 11.7334 3.73304C11.7334 4.02759 11.9722 4.26637 12.2667 4.26637H12.8001C13.0946 4.26637 13.3334 4.02759 13.3334 3.73304C13.3334 3.43849 13.0946 3.19971 12.8001 3.19971Z" fill="black"/>
<path d="M19.1999 3.19971H14.9332C14.6387 3.19971 14.3999 3.43849 14.3999 3.73304C14.3999 4.02759 14.6387 4.26637 14.9332 4.26637H19.1999C19.4945 4.26637 19.7332 4.02759 19.7332 3.73304C19.7332 3.43849 19.4945 3.19971 19.1999 3.19971Z" fill="black"/>
<path d="M12.8001 5.3335H12.2667C11.9722 5.3335 11.7334 5.57228 11.7334 5.86683C11.7334 6.16138 11.9722 6.40016 12.2667 6.40016H12.8001C13.0946 6.40016 13.3334 6.16138 13.3334 5.86683C13.3334 5.57228 13.0946 5.3335 12.8001 5.3335Z" fill="black"/>
<path d="M19.1999 5.3335H14.9332C14.6387 5.3335 14.3999 5.57228 14.3999 5.86683C14.3999 6.16138 14.6387 6.40016 14.9332 6.40016H19.1999C19.4945 6.40016 19.7332 6.16138 19.7332 5.86683C19.7332 5.57228 19.4945 5.3335 19.1999 5.3335Z" fill="black"/>
<path d="M12.8001 7.4668H12.2667C11.9722 7.4668 11.7334 7.70558 11.7334 8.00013C11.7334 8.29468 11.9722 8.53346 12.2667 8.53346H12.8001C13.0946 8.53346 13.3334 8.29468 13.3334 8.00013C13.3334 7.70558 13.0946 7.4668 12.8001 7.4668Z" fill="black"/>
<path d="M19.1999 7.4668H14.9332C14.6387 7.4668 14.3999 7.70558 14.3999 8.00013C14.3999 8.29468 14.6387 8.53346 14.9332 8.53346H19.1999C19.4945 8.53346 19.7332 8.29468 19.7332 8.00013C19.7332 7.70558 19.4945 7.4668 19.1999 7.4668Z" fill="black"/>
</g>
<defs>
<clipPath id="clip0_10_592">
<rect width="32" height="32" fill="white"/>
</clipPath>
</defs>
</svg>
