<svg width="32" height="32" viewBox="0 0 32 32" fill="none" xmlns="http://www.w3.org/2000/svg">
<path d="M23.6092 1.08706H22.4882V0.509562C22.4882 0.228125 22.26 0 21.9786 0C21.6972 0 21.469 0.228125 21.469 0.509562V1.08706H20.314V0.509562C20.314 0.228125 20.0859 0 19.8045 0C19.523 0 19.2949 0.228125 19.2949 0.509562V1.08706H18.1399V0.509562C18.1399 0.228125 17.9118 0 17.6303 0C17.3489 0 17.1208 0.228125 17.1208 0.509562V1.08706H15.9658V0.509562C15.9658 0.228125 15.7377 0 15.4562 0C15.1748 0 14.9467 0.228125 14.9467 0.509562V1.08706H13.7917V0.509562C13.7917 0.228125 13.5635 0 13.2821 0C13.0007 0 12.7725 0.228125 12.7725 0.509562V1.08706H11.6175V0.509562C11.6175 0.228125 11.3894 0 11.108 0C10.8265 0 10.5984 0.228125 10.5984 0.509562V1.08706H9.44359V0.509562C9.44359 0.228125 9.21547 0 8.93403 0C8.65259 0 8.42447 0.228125 8.42447 0.509562V1.08706H7.26946V0.509562C7.26946 0.228125 7.04134 0 6.7599 0C6.47847 0 6.25034 0.228125 6.25034 0.509562V1.08706H5.12934C4.24896 1.08706 3.53271 1.80331 3.53271 2.68369V27.1423C3.53271 28.0227 4.24896 28.7389 5.12934 28.7389H15.4563C15.7377 28.7389 15.9658 28.5108 15.9658 28.2294C15.9658 27.9479 15.7377 27.7198 15.4563 27.7198H5.12934C4.8109 27.7198 4.55184 27.4608 4.55184 27.1423V2.68362C4.55184 2.36519 4.8109 2.10613 5.12934 2.10613H6.25034V2.68362C6.25034 2.96506 6.47847 3.19319 6.7599 3.19319C7.04134 3.19319 7.26946 2.96506 7.26946 2.68362V2.10613H8.42447V2.68362C8.42447 2.96506 8.65259 3.19319 8.93403 3.19319C9.21547 3.19319 9.44359 2.96506 9.44359 2.68362V2.10613H10.5986V2.68362C10.5986 2.96506 10.8267 3.19319 11.1082 3.19319C11.3896 3.19319 11.6177 2.96506 11.6177 2.68362V2.10613H12.7727V2.68362C12.7727 2.96506 13.0008 3.19319 13.2823 3.19319C13.5637 3.19319 13.7918 2.96506 13.7918 2.68362V2.10613H14.9468V2.68362C14.9468 2.96506 15.175 3.19319 15.4564 3.19319C15.7378 3.19319 15.966 2.96506 15.966 2.68362V2.10613H17.121V2.68362C17.121 2.96506 17.3491 3.19319 17.6305 3.19319C17.912 3.19319 18.1401 2.96506 18.1401 2.68362V2.10613H19.2951V2.68362C19.2951 2.96506 19.5232 3.19319 19.8047 3.19319C20.0861 3.19319 20.3142 2.96506 20.3142 2.68362V2.10613H21.4692V2.68362C21.4692 2.96506 21.6973 3.19319 21.9788 3.19319C22.2602 3.19319 22.4883 2.96506 22.4883 2.68362V2.10613H23.6093C23.9278 2.10613 24.1868 2.36519 24.1868 2.68362V18.9895C24.1868 19.2709 24.415 19.4991 24.6964 19.4991C24.9778 19.4991 25.206 19.2709 25.206 18.9895V2.68362C25.2058 1.80325 24.4895 1.08706 23.6092 1.08706Z" fill="black"/>
<path d="M22.5224 20.1104C19.2444 20.1104 16.5776 22.7772 16.5776 26.0552C16.5776 29.3332 19.2444 32 22.5224 32C25.8004 32 28.4673 29.3332 28.4673 26.0552C28.4673 22.7772 25.8004 20.1104 22.5224 20.1104ZM22.5224 30.9809C19.8064 30.9809 17.5968 28.7712 17.5968 26.0552C17.5968 23.3391 19.8064 21.1295 22.5224 21.1295C25.2385 21.1295 27.4481 23.3391 27.4481 26.0552C27.4481 28.7712 25.2385 30.9809 22.5224 30.9809Z" fill="black"/>
<path d="M26.0855 24.9962C26.024 24.8071 25.8583 24.671 25.6609 24.6476L23.7786 24.4244L22.9847 22.7033C22.9014 22.5228 22.7208 22.4072 22.522 22.4072C22.3232 22.4072 22.1425 22.5228 22.0592 22.7033L21.2654 24.4244L19.3832 24.6476C19.1858 24.671 19.02 24.807 18.9585 24.9962C18.8971 25.1852 18.9513 25.3927 19.0972 25.5277L20.4888 26.8146L20.1194 28.6737C20.0807 28.8687 20.1589 29.0684 20.3197 29.1852C20.4805 29.3021 20.6947 29.3147 20.8681 29.2177L22.522 28.2919L24.176 29.2177C24.2535 29.2611 24.3393 29.2826 24.4249 29.2826C24.5304 29.2826 24.6355 29.2499 24.7244 29.1853C24.8852 29.0684 24.9634 28.8687 24.9247 28.6737L24.5554 26.8147L25.9469 25.5278C26.0929 25.3927 26.147 25.1852 26.0855 24.9962ZM23.654 26.2601C23.5239 26.3804 23.4657 26.5597 23.5002 26.7335L23.7099 27.7889L22.771 27.2634C22.6937 27.2201 22.6079 27.1985 22.5221 27.1985C22.4363 27.1985 22.3505 27.2201 22.2732 27.2634L21.3344 27.7889L21.544 26.7335C21.5785 26.5597 21.5204 26.3805 21.3902 26.2601L20.6003 25.5296L21.6688 25.403C21.8447 25.382 21.9972 25.2713 22.0715 25.1104L22.5221 24.1334L22.9727 25.1104C23.047 25.2713 23.1995 25.382 23.3754 25.403L24.4439 25.5296L23.654 26.2601Z" fill="black"/>
<path d="M22.5223 4.34814H6.21659C5.93516 4.34814 5.70703 4.57627 5.70703 4.85771C5.70703 5.13914 5.93516 5.36727 6.21659 5.36727H22.5223C22.8038 5.36727 23.0319 5.13914 23.0319 4.85771C23.0319 4.57627 22.8037 4.34814 22.5223 4.34814Z" fill="black"/>
<path d="M10.5646 9.78339C10.2832 9.78339 10.0551 10.0115 10.0551 10.293C10.0551 10.9111 9.5522 11.414 8.93407 11.414C8.31595 11.414 7.81307 10.9111 7.81307 10.293C7.81307 9.67483 8.31595 9.17196 8.93407 9.17196C9.21551 9.17196 9.44363 8.94383 9.44363 8.66239C9.44363 8.38096 9.21551 8.15283 8.93407 8.15283C7.75401 8.15283 6.79395 9.11289 6.79395 10.293C6.79395 11.473 7.75401 12.4331 8.93407 12.4331C10.1141 12.4331 11.0742 11.473 11.0742 10.293C11.0742 10.0115 10.8461 9.78339 10.5646 9.78339Z" fill="black"/>
<path d="M10.5646 15.7624C10.2832 15.7624 10.0551 15.9905 10.0551 16.272C10.0551 16.8901 9.5522 17.393 8.93407 17.393C8.31595 17.393 7.81307 16.8901 7.81307 16.272C7.81307 15.6538 8.31595 15.151 8.93407 15.151C9.21551 15.151 9.44363 14.9228 9.44363 14.6414C9.44363 14.36 9.21551 14.1318 8.93407 14.1318C7.75401 14.1318 6.79395 15.0919 6.79395 16.272C6.79395 17.452 7.75401 18.4121 8.93407 18.4121C10.1141 18.4121 11.0742 17.452 11.0742 16.272C11.0742 15.9906 10.8461 15.7624 10.5646 15.7624Z" fill="black"/>
<path d="M21.4354 16.8491H12.7391C12.4576 16.8491 12.2295 17.0772 12.2295 17.3587C12.2295 17.6401 12.4576 17.8682 12.7391 17.8682H21.4354C21.7169 17.8682 21.945 17.6401 21.945 17.3587C21.945 17.0772 21.7168 16.8491 21.4354 16.8491Z" fill="black"/>
<path d="M19.2613 14.6753H12.7391C12.4576 14.6753 12.2295 14.9034 12.2295 15.1849C12.2295 15.4663 12.4576 15.6944 12.7391 15.6944H19.2614C19.5428 15.6944 19.7709 15.4663 19.7709 15.1849C19.7709 14.9034 19.5427 14.6753 19.2613 14.6753Z" fill="black"/>
<path d="M15.4567 22.8281H12.7391C12.4576 22.8281 12.2295 23.0563 12.2295 23.3377C12.2295 23.6191 12.4576 23.8472 12.7391 23.8472H15.4567C15.7381 23.8472 15.9662 23.6191 15.9662 23.3377C15.9662 23.0563 15.7381 22.8281 15.4567 22.8281Z" fill="black"/>
<path d="M16.5437 20.6538H12.7391C12.4576 20.6538 12.2295 20.8819 12.2295 21.1634C12.2295 21.4448 12.4576 21.6729 12.7391 21.6729H16.5437C16.8252 21.6729 17.0533 21.4448 17.0533 21.1634C17.0533 20.8819 16.8252 20.6538 16.5437 20.6538Z" fill="black"/>
<path d="M21.4354 10.8706H12.7391C12.4576 10.8706 12.2295 11.0987 12.2295 11.3802C12.2295 11.6616 12.4576 11.8897 12.7391 11.8897H21.4354C21.7169 11.8897 21.945 11.6616 21.945 11.3802C21.945 11.0987 21.7168 10.8706 21.4354 10.8706Z" fill="black"/>
<path d="M19.2613 8.69629H12.7391C12.4576 8.69629 12.2295 8.92441 12.2295 9.20585C12.2295 9.48729 12.4576 9.71541 12.7391 9.71541H19.2614C19.5428 9.71541 19.7709 9.48729 19.7709 9.20585C19.7709 8.92441 19.5427 8.69629 19.2613 8.69629Z" fill="black"/>
<path d="M10.5646 21.7409C10.2832 21.7409 10.0551 21.969 10.0551 22.2505C10.0551 22.8686 9.5522 23.3715 8.93407 23.3715C8.31595 23.3715 7.81307 22.8686 7.81307 22.2505C7.81307 21.6324 8.31595 21.1295 8.93407 21.1295C9.21551 21.1295 9.44363 20.9014 9.44363 20.6199C9.44363 20.3385 9.21551 20.1104 8.93407 20.1104C7.75401 20.1104 6.79395 21.0704 6.79395 22.2505C6.79395 23.4305 7.75401 24.3906 8.93407 24.3906C10.1141 24.3906 11.0742 23.4305 11.0742 22.2505C11.0742 21.969 10.8461 21.7409 10.5646 21.7409Z" fill="black"/>
</svg>
