<svg width="32" height="32" viewBox="0 0 32 32" fill="none" xmlns="http://www.w3.org/2000/svg">
<g clip-path="url(#clip0_10_192)">
<path d="M10.9796 14.9292C14.265 14.9292 16.9378 12.2563 16.9378 8.97104C16.6382 1.07759 5.31985 1.07971 5.02148 8.97111C5.02148 12.2563 7.69428 14.9292 10.9796 14.9292Z" fill="black"/>
<path d="M14.1922 26.0409V21.0201C14.1922 19.1748 14.9349 17.4731 16.1586 16.2293C9.04662 12.2775 -0.110488 17.7291 0.00100841 25.9076C0.000883417 25.9075 0.000883417 29.0533 0.000883417 29.0533C0.000883417 30.6565 1.2976 31.9991 2.94661 31.9991H16.9462C15.2621 30.5612 14.1922 28.4237 14.1922 26.0409Z" fill="black"/>
<path d="M27.9832 16.1552V3.94988C27.9832 3.7012 27.8844 3.46277 27.7086 3.28703L24.6961 0.274617C24.5203 0.0988096 24.2819 0 24.0333 0C23.7846 0 23.5462 0.0987471 23.3704 0.274617L20.358 3.28703C19.9919 3.65308 19.9919 4.24669 20.358 4.6128L21.2012 5.45609L20.3579 6.29944C19.9918 6.66556 19.9918 7.2591 20.3579 7.62521L21.2012 8.4685L20.358 9.31173C19.9919 9.67778 19.9919 10.2713 20.358 10.6375L21.2014 11.4809L20.3581 12.3241C20.1823 12.4999 20.0835 12.7384 20.0835 12.987V16.155C17.7985 16.5945 16.0669 18.6089 16.0669 21.0201V26.0408C16.0669 29.3261 18.7397 31.9989 22.025 31.9989H26.0416C29.3269 31.9989 31.9997 29.3261 31.9997 26.0408V21.0201C31.9997 18.609 30.2681 16.5946 27.9832 16.1552ZM24.0333 27.1117C22.8891 27.1117 21.9583 26.1809 21.9583 25.0367C22.0627 22.2878 26.0044 22.2885 26.1082 25.0367C26.1082 26.1809 25.1774 27.1117 24.0333 27.1117Z" fill="black"/>
</g>
<defs>
<clipPath id="clip0_10_192">
<rect width="32" height="32" fill="white"/>
</clipPath>
</defs>
</svg>
