<svg width="32" height="32" viewBox="0 0 32 32" fill="none" xmlns="http://www.w3.org/2000/svg">
<g clip-path="url(#clip0_10_123)">
<path d="M19.9998 17.3336C19.2625 17.3336 18.6666 17.931 18.6666 18.6668V24.0002C18.6666 24.7349 18.0691 25.3335 17.3331 25.3335H13.3331V5.33369C13.3331 4.19502 12.6078 3.1777 11.5172 2.79904L11.1224 2.66696H17.3331C18.0691 2.66696 18.6666 3.26559 18.6666 4.00045V8.00041C18.6666 8.73624 19.2625 9.33364 19.9998 9.33364C20.7371 9.33364 21.333 8.73624 21.333 8.00041V4.00045C21.333 1.79515 19.5384 0.000488281 17.3331 0.000488281H2.99997C2.94919 0.000488281 2.90671 0.0231932 2.85739 0.0297848C2.79318 0.0244138 2.7319 0.000488281 2.66672 0.000488281C1.19603 0.000488281 0 1.19628 0 2.66696V26.6667C0 27.8054 0.725334 28.8227 1.8159 29.2014L9.83998 31.8761C10.112 31.9601 10.3825 32.0002 10.6666 32.0002C12.1373 32.0002 13.3331 30.8041 13.3331 29.3334V28.0002H17.3331C19.5384 28.0002 21.333 26.2055 21.333 24.0002V18.6668C21.333 17.931 20.7371 17.3336 19.9998 17.3336Z" fill="black"/>
<path d="M31.609 12.3907L26.2755 7.05753C25.8944 6.67619 25.321 6.56144 24.8224 6.76798C24.3251 6.97477 23.9997 7.46133 23.9997 8.00015V12.0001H18.6665C17.9304 12.0001 17.333 12.5973 17.333 13.3333C17.333 14.0694 17.9304 14.6666 18.6665 14.6666H23.9997V18.6665C23.9997 19.2054 24.3251 19.6919 24.8224 19.8987C25.321 20.1052 25.8944 19.9905 26.2755 19.6094L31.609 14.276C32.1302 13.7547 32.1302 12.912 31.609 12.3907Z" fill="black"/>
</g>
<defs>
<clipPath id="clip0_10_123">
<rect width="32" height="32" fill="white"/>
</clipPath>
</defs>
</svg>
