<svg width="256" height="199" viewBox="0 0 256 199" fill="none" xmlns="http://www.w3.org/2000/svg">
<g clip-path="url(#clip0_9002_134680)">
<path d="M46.5411 198.011V184.84C46.5411 179.79 43.4671 176.498 38.1981 176.498C35.5641 176.498 32.7101 177.376 30.7341 180.23C29.1981 177.815 27.0031 176.498 23.7101 176.498C21.5141 176.498 19.3201 177.156 17.5631 179.571V176.937H12.9531V198.011H17.5631V186.376C17.5631 182.645 19.5391 180.888 22.6131 180.888C25.6851 180.888 27.2231 182.864 27.2231 186.376V198.011H31.8331V186.376C31.8331 182.645 34.0271 180.888 36.8811 180.888C39.9551 180.888 41.4911 182.864 41.4911 186.376V198.011H46.5411ZM114.812 176.937H107.349V170.571H102.739V176.937H98.5681V181.107H102.738V190.767C102.738 195.597 104.714 198.45 109.983 198.45C111.959 198.45 114.153 197.792 115.691 196.914L114.373 192.962C113.056 193.84 111.52 194.06 110.422 194.06C108.227 194.06 107.349 192.743 107.349 190.547V181.107H114.812V176.937ZM153.888 176.497C151.254 176.497 149.498 177.815 148.4 179.571V176.937H143.79V198.011H148.4V186.157C148.4 182.645 149.936 180.669 152.79 180.669C153.668 180.669 154.766 180.889 155.644 181.108L156.961 176.718C156.083 176.498 154.766 176.498 153.888 176.498M94.8361 178.694C92.6401 177.157 89.5671 176.499 86.2741 176.499C81.0061 176.499 77.4941 179.133 77.4941 183.304C77.4941 186.817 80.1281 188.792 84.7381 189.451L86.9331 189.671C89.3481 190.109 90.6651 190.768 90.6651 191.866C90.6651 193.402 88.9091 194.5 85.8351 194.5C82.7621 194.5 80.3471 193.402 78.8101 192.305L76.6151 195.817C79.0301 197.573 82.3231 198.451 85.6151 198.451C91.7621 198.451 95.2751 195.598 95.2751 191.646C95.2751 187.914 92.4211 185.938 88.0301 185.28L85.8351 185.06C83.8591 184.84 82.3231 184.402 82.3231 183.085C82.3231 181.548 83.8591 180.67 86.2741 180.67C88.9091 180.67 91.5431 181.767 92.8601 182.426L94.8361 178.694ZM217.331 176.499C214.696 176.499 212.94 177.816 211.842 179.572V176.938H207.232V198.012H211.842V186.158C211.842 182.646 213.379 180.67 216.232 180.67C217.111 180.67 218.209 180.89 219.087 181.109L220.404 176.719C219.526 176.499 218.209 176.499 217.331 176.499ZM158.498 187.475C158.498 193.841 162.888 198.451 169.694 198.451C172.767 198.451 174.962 197.793 177.157 196.037L174.962 192.305C173.206 193.622 171.45 194.28 169.474 194.28C165.742 194.28 163.108 191.646 163.108 187.475C163.108 183.524 165.742 180.889 169.474 180.67C171.45 180.67 173.206 181.328 174.962 182.646L177.157 178.914C174.962 177.157 172.767 176.499 169.694 176.499C162.888 176.499 158.498 181.109 158.498 187.475ZM201.086 187.475V176.938H196.476V179.572C194.939 177.597 192.744 176.499 189.89 176.499C183.963 176.499 179.353 181.109 179.353 187.475C179.353 193.841 183.963 198.451 189.89 198.451C192.963 198.451 195.159 197.354 196.476 195.378V198.012H201.086V187.475ZM184.182 187.475C184.182 183.743 186.597 180.67 190.548 180.67C194.28 180.67 196.915 183.524 196.915 187.475C196.915 191.207 194.28 194.28 190.548 194.28C186.597 194.06 184.182 191.207 184.182 187.475ZM129.082 176.499C122.935 176.499 118.544 180.889 118.544 187.475C118.544 194.061 122.934 198.451 129.301 198.451C132.374 198.451 135.448 197.573 137.863 195.598L135.667 192.305C133.911 193.622 131.716 194.5 129.521 194.5C126.667 194.5 123.813 193.183 123.154 189.45H138.741V187.695C138.961 180.889 135.01 176.499 129.082 176.499ZM129.081 180.45C131.934 180.45 133.911 182.207 134.349 185.5H123.373C123.812 182.646 125.788 180.45 129.081 180.45ZM243.453 187.475V168.596H238.843V179.572C237.306 177.597 235.111 176.499 232.257 176.499C226.33 176.499 221.72 181.109 221.72 187.475C221.72 193.841 226.33 198.451 232.257 198.451C235.331 198.451 237.526 197.354 238.843 195.378V198.012H243.453V187.475ZM226.55 187.475C226.55 183.743 228.964 180.67 232.916 180.67C236.648 180.67 239.282 183.524 239.282 187.475C239.282 191.207 236.648 194.28 232.916 194.28C228.964 194.06 226.55 191.207 226.55 187.475ZM72.4431 187.475V176.938H67.8331V179.572C66.2961 177.597 64.1011 176.499 61.2471 176.499C55.3201 176.499 50.7101 181.109 50.7101 187.475C50.7101 193.841 55.3201 198.451 61.2471 198.451C64.3211 198.451 66.5161 197.354 67.8331 195.378V198.012H72.4431V187.475ZM55.3201 187.475C55.3201 183.743 57.7351 180.67 61.6861 180.67C65.4181 180.67 68.0531 183.524 68.0531 187.475C68.0531 191.207 65.4181 194.28 61.6861 194.28C57.7351 194.06 55.3201 191.207 55.3201 187.475Z" fill="black"/>
<path d="M93.2969 16.9033H162.447V141.154H93.2969V16.9033Z" fill="#FF5F00"/>
<path d="M97.689 79.029C97.689 53.784 109.543 31.392 127.763 16.903C114.373 6.366 97.47 0 79.03 0C35.343 0 0 35.343 0 79.029C0 122.714 35.343 158.058 79.029 158.058C97.469 158.058 114.372 151.692 127.763 141.154C109.543 126.885 97.689 104.274 97.689 79.029Z" fill="#EB001B"/>
<path d="M255.747 79.029C255.747 122.714 220.404 158.058 176.718 158.058C158.278 158.058 141.375 151.692 127.984 141.154C146.424 126.666 158.059 104.274 158.059 79.029C158.059 53.784 146.204 31.392 127.984 16.903C141.374 6.366 158.278 0 176.718 0C220.404 0 255.747 35.563 255.747 79.029Z" fill="#F79E1B"/>
</g>
<defs>
<clipPath id="clip0_9002_134680">
<rect width="256" height="199" fill="white"/>
</clipPath>
</defs>
</svg>
