<svg width="20" height="20" viewBox="0 0 20 20" fill="none" xmlns="http://www.w3.org/2000/svg">
<path fill-rule="evenodd" clip-rule="evenodd" d="M18.7 13.8637C16.587 11.746 16.2691 10.6834 16.2691 7.3C16.2691 3.82059 13.4546 1 9.98252 1C6.51049 1 3.696 3.82062 3.696 7.3C3.696 9.12429 3.64751 9.8053 3.39688 10.6414C3.08519 11.683 2.44533 12.6802 1.26474 13.8637C0.699156 14.4307 1.09979 15.4 1.89982 15.4H6.88417L6.83895 15.85C6.83895 17.5897 8.24621 19 9.98221 19C11.7182 19 13.1255 17.5897 13.1255 15.85L13.0802 15.4H18.0649C18.8653 15.4 19.2659 14.4307 18.7 13.8637ZM9.98281 18.1C8.74291 18.1 7.73751 17.0923 7.73751 15.85L7.78274 15.4H12.1824L12.2282 15.85C12.2281 17.0923 11.2227 18.1 9.98281 18.1ZM4.59424 7.3C4.59424 10 4.59424 11.8 1.9001 14.5H18.0652C15.3711 11.8 15.3711 10 15.3711 7.3C15.3708 4.31801 12.9584 1.9 9.98252 1.9C7.00663 1.9 4.59424 4.31801 4.59424 7.3Z" fill="#241E1F"/>
<path d="M18.7 13.8637L18.5584 14.005L18.5584 14.005L18.7 13.8637ZM3.39688 10.6414L3.2053 10.584L3.20527 10.5841L3.39688 10.6414ZM1.26474 13.8637L1.12314 13.7225L1.12314 13.7225L1.26474 13.8637ZM6.88417 15.4L7.08317 15.42L7.10528 15.2H6.88417V15.4ZM6.83895 15.85L6.63995 15.83L6.63895 15.84V15.85H6.83895ZM13.1255 15.85H13.3255V15.84L13.3245 15.83L13.1255 15.85ZM13.0802 15.4V15.2H12.8591L12.8812 15.42L13.0802 15.4ZM7.73751 15.85L7.53851 15.83L7.53751 15.84V15.85H7.73751ZM7.78274 15.4V15.2H7.60183L7.58374 15.38L7.78274 15.4ZM12.1824 15.4L12.3813 15.3797L12.363 15.2H12.1824V15.4ZM12.2282 15.85L12.4282 15.85L12.4282 15.8398L12.4271 15.8297L12.2282 15.85ZM1.9001 14.5L1.75853 14.3587L1.418 14.7H1.9001V14.5ZM18.0652 14.5V14.7H18.5473L18.2068 14.3587L18.0652 14.5ZM15.3711 7.3L15.5711 7.3L15.5711 7.29998L15.3711 7.3ZM16.0691 7.3C16.0691 8.99206 16.1474 10.135 16.504 11.1243C16.8626 12.1191 17.495 12.9392 18.5584 14.005L18.8416 13.7224C17.792 12.6705 17.209 11.9005 16.8803 10.9887C16.5497 10.0714 16.4691 8.99135 16.4691 7.3H16.0691ZM9.98252 1.2C13.3437 1.2 16.0691 3.93064 16.0691 7.3H16.4691C16.4691 3.71053 13.5654 0.8 9.98252 0.8V1.2ZM3.896 7.3C3.896 3.93067 6.62135 1.2 9.98252 1.2V0.8C6.39963 0.8 3.496 3.71057 3.496 7.3H3.896ZM3.58845 10.6988C3.84833 9.83188 3.896 9.1245 3.896 7.3H3.496C3.496 9.12409 3.44668 9.77873 3.2053 10.584L3.58845 10.6988ZM1.40633 14.005C2.60104 12.8073 3.26417 11.7825 3.58848 10.6987L3.20527 10.5841C2.90621 11.5835 2.28963 12.5531 1.12314 13.7225L1.40633 14.005ZM1.89982 15.2C1.27879 15.2 0.96584 14.4466 1.40633 14.005L1.12314 13.7225C0.432473 14.4149 0.920787 15.6 1.89982 15.6V15.2ZM6.88417 15.2H1.89982V15.6H6.88417V15.2ZM7.03794 15.87L7.08317 15.42L6.68518 15.38L6.63995 15.83L7.03794 15.87ZM9.98221 18.8C8.35707 18.8 7.03895 17.4797 7.03895 15.85H6.63895C6.63895 17.6998 8.13535 19.2 9.98221 19.2V18.8ZM12.9255 15.85C12.9255 17.4797 11.6073 18.8 9.98221 18.8V19.2C11.8291 19.2 13.3255 17.6998 13.3255 15.85H12.9255ZM12.8812 15.42L12.9265 15.87L13.3245 15.83L13.2792 15.38L12.8812 15.42ZM18.0649 15.2H13.0802V15.6H18.0649V15.2ZM18.5584 14.005C18.9991 14.4465 18.6863 15.2 18.0649 15.2V15.6C19.0442 15.6 19.5327 14.4149 18.8416 13.7224L18.5584 14.005ZM7.53751 15.85C7.53751 17.2024 8.63205 18.3 9.98281 18.3V17.9C8.85377 17.9 7.93751 16.9823 7.93751 15.85H7.53751ZM7.58374 15.38L7.53851 15.83L7.9365 15.87L7.98173 15.42L7.58374 15.38ZM12.1824 15.2H7.78274V15.6H12.1824V15.2ZM12.4271 15.8297L12.3813 15.3797L11.9834 15.4203L12.0292 15.8703L12.4271 15.8297ZM9.98281 18.3C11.3336 18.3 12.4281 17.2024 12.4282 15.85L12.0282 15.85C12.0281 16.9823 11.1118 17.9 9.98281 17.9V18.3ZM2.04168 14.6413C3.40533 13.2747 4.10041 12.1221 4.44908 10.9574C4.79569 9.79945 4.79424 8.64435 4.79424 7.3H4.39424C4.39424 8.65565 4.39279 9.75055 4.06588 10.8426C3.74101 11.9279 3.08902 13.0253 1.75853 14.3587L2.04168 14.6413ZM18.0652 14.3H1.9001V14.7H18.0652V14.3ZM15.1711 7.3C15.1711 8.64435 15.1696 9.79945 15.5163 10.9574C15.8649 12.1221 16.56 13.2747 17.9237 14.6413L18.2068 14.3587C16.8763 13.0253 16.2243 11.9279 15.8995 10.8426C15.5725 9.75055 15.5711 8.65565 15.5711 7.3H15.1711ZM9.98252 2.1C12.8475 2.1 15.1708 4.42805 15.1711 7.30002L15.5711 7.29998C15.5708 4.20797 13.0693 1.7 9.98252 1.7V2.1ZM4.79424 7.3C4.79424 4.42805 7.11751 2.1 9.98252 2.1V1.7C6.89575 1.7 4.39424 4.20797 4.39424 7.3H4.79424Z" fill="#241E1F"/>
</svg>
