<svg width="32" height="32" viewBox="0 0 32 32" fill="none" xmlns="http://www.w3.org/2000/svg">
<path d="M28.5337 15.467L16.5337 3.46699C16.067 2.93366 15.4003 2.66699 14.667 2.66699H5.33366C3.86699 2.66699 2.66699 3.86699 2.66699 5.33366V14.667C2.66699 15.4003 2.93366 16.067 3.46699 16.5337L15.467 28.5337C15.9337 29.0003 16.6003 29.3337 17.3337 29.3337C18.067 29.3337 18.7337 29.0003 19.2003 28.5337L28.5337 19.2003C29.0003 18.7337 29.3337 18.067 29.3337 17.3337C29.3337 16.6003 29.0003 15.9337 28.5337 15.467ZM7.33366 9.33366C6.20033 9.33366 5.33366 8.46699 5.33366 7.33366C5.33366 6.20033 6.20033 5.33366 7.33366 5.33366C8.46699 5.33366 9.33366 6.20033 9.33366 7.33366C9.33366 8.46699 8.46699 9.33366 7.33366 9.33366Z" fill="black"/>
</svg>
