<svg width="32" height="32" viewBox="0 0 32 32" fill="none" xmlns="http://www.w3.org/2000/svg">
<path d="M28.328 17.1731C28.896 17.9621 30 19.6561 30 20.8991C30 22.0601 29.105 23.0001 28 23.0001C26.895 23.0001 26 22.0601 26 20.8991C26 19.6331 27.101 17.9531 27.669 17.1711C27.836 16.9421 28.163 16.9431 28.328 17.1731Z" fill="black"/>
<path d="M27.526 12.149C27.231 11.967 26.862 11.951 26.553 12.105L20 15.382V13C20 12.448 19.552 12 19 12H14V10H17C17.552 10 18 9.552 18 9C18 8.448 17.552 8 17 8H9C8.448 8 8 8.448 8 9C8 9.552 8.448 10 9 10H12V12H7H5C3.346 12 2 13.346 2 15V17C2 18.654 3.346 20 5 20H6V21C6 22.654 7.346 24 9 24H18.102C18.958 24 19.776 23.633 20.344 22.993L27.747 14.664C27.91 14.481 28 14.245 28 14V13C28 12.653 27.82 12.332 27.526 12.149ZM5 18C4.449 18 4 17.551 4 17V15C4 14.449 4.449 14 5 14H6V18H5Z" fill="black"/>
</svg>
