<svg width="32" height="32" viewBox="0 0 32 32" fill="none" xmlns="http://www.w3.org/2000/svg">
<g clip-path="url(#clip0_10_185)">
<path d="M0.0646836 30.7749C-0.0290664 31.1001 0.0646836 31.4563 0.301988 31.6938C0.477037 31.8687 0.720934 31.9688 0.964586 31.9688C1.05199 31.9688 1.13963 31.9563 1.22093 31.9312L9.95824 29.4375L2.55834 22.0376L0.0646836 30.7749Z" fill="black"/>
<path d="M0.96434 32.0002C0.707992 32.0002 0.46434 31.9001 0.283188 31.719C0.0331878 31.469 -0.0605622 31.1064 0.0392913 30.769L2.55174 21.9814L10.0268 29.4565L1.22679 31.9626C1.13939 31.9878 1.05174 32.0002 0.96434 32.0002ZM2.57689 22.094L0.0956878 30.7815C0.00804132 31.1003 0.0956878 31.4377 0.326889 31.6689C0.49559 31.8376 0.726791 31.9314 0.96434 31.9314C1.04564 31.9314 1.13304 31.9189 1.21434 31.894L9.90184 29.4128L2.57689 22.094Z" fill="black"/>
<path d="M31.1455 4.82495L27.1768 0.856201C26.6394 0.324951 25.9395 0.03125 25.1831 0.03125C24.4331 0.03125 23.7268 0.324951 23.1956 0.850098L21.208 2.8374L29.1519 10.7812L31.1394 8.7937C31.6707 8.26245 31.958 7.55615 31.958 6.80615C31.9644 6.05615 31.6707 5.3562 31.1455 4.82495Z" fill="black"/>
<path d="M29.1584 10.825L21.1709 2.8374L23.177 0.831299C23.7146 0.293701 24.427 0 25.1833 0C25.9458 0 26.6584 0.293701 27.1897 0.831299L31.1584 4.80005C31.6958 5.3374 31.9895 6.05005 31.9895 6.80615C31.9895 7.56885 31.6958 8.28125 31.1584 8.8125L29.1584 10.825ZM21.2583 2.8374L29.1584 10.7375L31.1208 8.7749C31.6458 8.25 31.9333 7.55615 31.9333 6.8125C31.9333 6.06885 31.6458 5.375 31.1208 4.8501L27.1521 0.875C26.6272 0.350098 25.927 0.0625 25.1833 0.0625C24.4397 0.0625 23.7458 0.350098 23.2209 0.875L21.2583 2.8374Z" fill="black"/>
<path d="M3.61279 20.4387L19.8892 4.16211L27.8352 12.1082L11.5588 28.3848L3.61279 20.4387Z" fill="black"/>
<path d="M11.5581 28.4312L3.56445 20.4375L19.8894 4.11865L27.877 12.1062L11.5581 28.4312ZM3.6582 20.4375L11.5581 28.3374L27.7893 12.1062L19.8894 4.2063L3.6582 20.4375Z" fill="black"/>
</g>
<defs>
<clipPath id="clip0_10_185">
<rect width="32" height="32" fill="white"/>
</clipPath>
</defs>
</svg>
