<svg width="32" height="32" viewBox="0 0 32 32" fill="none" xmlns="http://www.w3.org/2000/svg">
<path d="M25.1506 21.7878L21.9114 19.5247C21.488 19.2297 20.9924 19.0737 20.4792 19.0737C19.6628 19.0737 18.8967 19.4741 18.4299 20.144L17.678 21.2214C16.4177 20.3765 15.011 19.1963 13.6707 17.8562C12.3308 16.5159 11.1506 15.1094 10.3054 13.8491L11.3826 13.0977C11.9319 12.7151 12.2981 12.1426 12.4148 11.4849C12.531 10.8284 12.3845 10.1646 12.0017 9.61499L9.73901 6.37598C9.10181 5.46436 7.89673 5.06543 6.88208 5.44068C6.58618 5.5503 6.31079 5.68433 6.03979 5.85401L5.59204 6.16944C5.48071 6.25635 5.3772 6.35108 5.27759 6.45044C4.73169 6.99634 4.34399 7.68677 4.12622 8.50318C3.1936 11.9988 5.50366 17.2834 9.87378 21.6533C13.5437 25.3232 17.9524 27.6033 21.3801 27.6035C21.9666 27.6035 22.5203 27.5352 23.0247 27.4006C23.8401 27.1826 24.5305 26.7954 25.0764 26.2495C25.176 26.1501 25.2712 26.0464 25.3728 25.9146L25.6877 25.4646C25.843 25.2163 25.9773 24.9404 26.0862 24.6448C26.4675 23.6147 26.0833 22.4399 25.1506 21.7878Z" fill="black"/>
<path d="M27.5781 4.39697H15.5781C15.3018 4.39697 15.0781 4.62085 15.0781 4.89697V11.897C15.0781 12.1731 15.3018 12.397 15.5781 12.397H17.353L18.5459 14.9377C18.6284 15.1133 18.8047 15.2253 18.9985 15.2253C19.1924 15.2253 19.3687 15.1133 19.4512 14.938L20.6445 12.397H27.5781C27.8545 12.397 28.0781 12.1731 28.0781 11.897V4.89697C28.0781 4.62085 27.8545 4.39697 27.5781 4.39697ZM25.0469 9.89697H18.1094C17.833 9.89697 17.6094 9.67309 17.6094 9.39697C17.6094 9.12085 17.833 8.89697 18.1094 8.89697H25.0469C25.3232 8.89697 25.5469 9.12085 25.5469 9.39697C25.5469 9.67309 25.3232 9.89697 25.0469 9.89697ZM25.0469 7.89697H18.1094C17.833 7.89697 17.6094 7.67309 17.6094 7.39697C17.6094 7.12085 17.833 6.89697 18.1094 6.89697H25.0469C25.3232 6.89697 25.5469 7.12085 25.5469 7.39697C25.5469 7.67309 25.3232 7.89697 25.0469 7.89697Z" fill="black"/>
</svg>
