<svg width="32" height="32" viewBox="0 0 32 32" fill="none" xmlns="http://www.w3.org/2000/svg">
<g clip-path="url(#clip0_15_212)">
<path fill-rule="evenodd" clip-rule="evenodd" d="M8.92247 21.6999L12.9186 16.8158C13.0974 16.5973 13.3647 16.4706 13.647 16.4706H23.0588C23.3806 16.4706 23.6801 16.635 23.8528 16.9065L26.8696 21.6471H29.1764C29.6962 21.6471 30.1176 22.0684 30.1176 22.5882V28.2353C30.1176 28.7551 29.6962 29.1765 29.1764 29.1765H27.2941C27.2941 27.0973 25.6086 25.4118 23.5294 25.4118C21.4502 25.4118 19.7647 27.0973 19.7647 29.1765H11.7647C11.7647 27.0973 10.0792 25.4118 7.99997 25.4118C5.92078 25.4118 4.23527 27.0973 4.23527 29.1765H2.8235C2.3037 29.1765 1.88232 28.7551 1.88232 28.2353V23.395C1.88232 22.9194 2.23708 22.5186 2.70911 22.4608L8.92247 21.6999ZM24.6384 21.6471L22.5421 18.3529H14.093L11.3978 21.6471H24.6384ZM23.5294 32C21.97 32 20.7059 30.7359 20.7059 29.1765C20.7059 27.6171 21.97 26.3529 23.5294 26.3529C25.0888 26.3529 26.3529 27.6171 26.3529 29.1765C26.3529 30.7359 25.0888 32 23.5294 32ZM7.99997 32C6.44058 32 5.17644 30.7359 5.17644 29.1765C5.17644 27.6171 6.44058 26.3529 7.99997 26.3529C9.55936 26.3529 10.8235 27.6171 10.8235 29.1765C10.8235 30.7359 9.55936 32 7.99997 32ZM23.5294 30.1176C24.0492 30.1176 24.4706 29.6963 24.4706 29.1765C24.4706 28.6567 24.0492 28.2353 23.5294 28.2353C23.0096 28.2353 22.5882 28.6567 22.5882 29.1765C22.5882 29.6963 23.0096 30.1176 23.5294 30.1176ZM7.99997 30.1176C8.51977 30.1176 8.94115 29.6963 8.94115 29.1765C8.94115 28.6567 8.51977 28.2353 7.99997 28.2353C7.48017 28.2353 7.05879 28.6567 7.05879 29.1765C7.05879 29.6963 7.48017 30.1176 7.99997 30.1176ZM24.4706 1.88235C24.9904 1.88235 25.4117 2.30373 25.4117 2.82353V10.3529C25.4117 10.8727 24.9904 11.2941 24.4706 11.2941H12.2353C11.7155 11.2941 11.2941 10.8727 11.2941 10.3529V2.82353C11.2941 2.30373 11.7155 1.88235 12.2353 1.88235H14.9477L15.6287 0.520264C15.7882 0.201408 16.1141 0 16.4706 0H20.2353C20.5918 0 20.9177 0.201408 21.0771 0.520264L21.7581 1.88235H24.4706ZM18.3529 9.41177C20.1722 9.41177 21.647 7.93694 21.647 6.11765C21.647 4.29836 20.1722 2.82353 18.3529 2.82353C16.5336 2.82353 15.0588 4.29836 15.0588 6.11765C15.0588 7.93694 16.5336 9.41177 18.3529 9.41177ZM18.3529 7.52941C17.5732 7.52941 16.9411 6.89734 16.9411 6.11765C16.9411 5.33795 17.5732 4.70588 18.3529 4.70588C19.1326 4.70588 19.7647 5.33795 19.7647 6.11765C19.7647 6.89734 19.1326 7.52941 18.3529 7.52941Z" fill="black"/>
</g>
<defs>
<clipPath id="clip0_15_212">
<rect width="32" height="32" fill="white"/>
</clipPath>
</defs>
</svg>
