<svg width="32" height="32" viewBox="0 0 32 32" fill="none" xmlns="http://www.w3.org/2000/svg">
<g clip-path="url(#clip0_10_362)">
<path d="M26.5462 17.4699H19.4292C19.0376 16.3176 17.9459 15.4858 16.6628 15.4858C15.3798 15.4858 14.2881 16.3176 13.8964 17.4699H8.69519C7.55487 17.4699 6.62719 16.5422 6.62719 15.4019C6.62719 14.2626 7.55412 13.3356 8.69344 13.3356H26.3242C26.9045 13.3356 27.4641 13.0917 27.8593 12.6664C29.7482 10.6337 32 7.77081 32 5.67438C32 2.5455 29.4538 0 26.3242 0C23.1946 0 20.6484 2.5455 20.6484 5.67438C20.6484 7.38231 22.1429 9.59875 23.7181 11.4607H8.69344C6.52025 11.4607 4.75219 13.2288 4.75219 15.4019C4.75219 17.5761 6.521 19.3449 8.69519 19.3449H13.8964C14.2881 20.4972 15.3798 21.3289 16.6628 21.3289C17.9459 21.3289 19.0376 20.4972 19.4292 19.3449H26.5462C28.5195 19.3449 30.125 20.9504 30.125 22.9237C30.125 24.8971 28.5195 26.5026 26.5462 26.5026H23.439C23.0474 25.3502 21.9557 24.5185 20.6726 24.5185C19.3896 24.5185 18.2979 25.3502 17.9062 26.5026H9.02456C8.59094 24.4364 6.7545 22.8801 4.56094 22.8801C2.04606 22.8801 0 24.9257 0 27.4401C0 29.9544 2.04606 32 4.561 32C6.75456 32 8.59094 30.4437 9.02462 28.3776H17.9062C18.2979 29.5299 19.3896 30.3616 20.6726 30.3616C21.9557 30.3616 23.0474 29.5299 23.439 28.3776H26.5462C29.5534 28.3776 32 25.931 32 22.9237C32 19.9165 29.5534 17.4699 26.5462 17.4699ZM26.3242 1.875C28.4199 1.875 30.125 3.57944 30.125 5.67438C30.125 6.7845 28.7306 8.97456 26.4858 11.39C26.4316 11.4484 26.368 11.4607 26.3242 11.4607C26.2805 11.4607 26.2169 11.4484 26.1626 11.39C23.9179 8.97463 22.5234 6.78456 22.5234 5.67444C22.5235 3.57944 24.2285 1.875 26.3242 1.875ZM16.6628 19.4539C16.0858 19.4539 15.6163 18.9844 15.6163 18.4074C15.6163 17.8303 16.0858 17.3608 16.6628 17.3608C17.2399 17.3608 17.7094 17.8303 17.7094 18.4074C17.7094 18.9844 17.2399 19.4539 16.6628 19.4539ZM4.561 30.125C3.07994 30.125 1.875 28.9206 1.875 27.4401C1.875 25.9596 3.07994 24.7551 4.561 24.7551C6.04206 24.7551 7.247 25.9596 7.247 27.4401C7.247 28.9206 6.04206 30.125 4.561 30.125ZM20.6726 28.4866C20.0956 28.4866 19.6261 28.0171 19.6261 27.4401C19.6261 26.863 20.0956 26.3935 20.6726 26.3935C21.2497 26.3935 21.7192 26.863 21.7192 27.4401C21.7192 28.0171 21.2498 28.4866 20.6726 28.4866Z" fill="black"/>
<path d="M27.262 5.73047C27.2393 5.22253 26.8501 4.79297 26.3245 4.79297C25.8341 4.79297 25.3643 5.22416 25.387 5.73047C25.4098 6.23841 25.799 6.66797 26.3245 6.66797C26.8149 6.66797 27.2847 6.23678 27.262 5.73047Z" fill="black"/>
</g>
<defs>
<clipPath id="clip0_10_362">
<rect width="32" height="32" fill="white"/>
</clipPath>
</defs>
</svg>
