<svg width="32" height="32" viewBox="0 0 32 32" fill="none" xmlns="http://www.w3.org/2000/svg">
<path d="M17.6552 26.6828V24.4829H0V26.6917C0 28.692 1.61638 30.345 3.61691 30.345H19.4345C19.2829 30.207 19.1366 30.0861 18.9984 29.9476C18.1344 29.081 17.6511 27.9064 17.6552 26.6828Z" fill="black"/>
<path d="M12.5004 13.3463L15.0623 15.1052L17.6343 13.3463C18.3376 12.8665 18.8964 11.7838 18.8964 10.9325V7.29783L15.0688 5.40479L11.2412 7.29298V10.9325C11.2412 11.7836 11.7967 12.8665 12.5004 13.3463ZM13.0771 9.91098C13.2665 9.72348 13.5723 9.72482 13.7598 9.91448L14.5292 10.6914L16.381 8.83986C16.5696 8.65128 16.8754 8.65128 17.0639 8.84013C17.2525 9.0287 17.2523 9.33447 17.0637 9.52305L14.8689 11.7189C14.7784 11.8097 14.6558 11.8614 14.5276 11.8619H14.5265C14.3977 11.8611 14.2746 11.8091 14.1846 11.717L13.0736 10.5947C12.8861 10.4048 12.8878 10.099 13.0771 9.91098Z" fill="black"/>
<path d="M29.4411 1.65527H29.4257C28.0073 1.65527 26.8276 2.84035 26.8276 4.25953V8.68975H32V4.25091C32.0065 2.82903 30.8629 1.66901 29.4411 1.65527Z" fill="black"/>
<path d="M7.41185 1.65527C6.07053 1.65527 4.97894 2.73232 4.97894 4.05344L4.83643 23.5173H18.1381C18.4089 23.5281 18.6225 23.7514 18.6209 24.0227V26.6827C18.616 28.6938 20.2373 30.3304 22.248 30.3449H22.2602C24.2637 30.3304 25.876 28.6946 25.8623 26.6911V4.26034C25.8623 3.24552 26.3189 2.34493 27.005 1.65527L7.41185 1.65527ZM10.2761 6.99201C10.2699 6.81044 10.3693 6.64153 10.5312 6.55856L14.8545 4.43383C14.9873 4.36809 15.143 4.36809 15.2758 4.43383L19.6069 6.56448C19.7688 6.64746 19.8682 6.8161 19.8623 6.99794V10.9327C19.8623 12.1038 19.1476 13.4845 18.1796 14.1442L15.3434 16.089C15.2639 16.1437 15.1697 16.173 15.0732 16.173C14.977 16.173 14.8833 16.1439 14.8044 16.089L11.9598 14.1442C10.9924 13.4842 10.2761 12.1035 10.2761 10.9327V6.99201ZM21.9312 21.3104H8.68987C8.42317 21.3104 8.20711 21.0944 8.20711 20.8277C8.20711 20.561 8.42317 20.3449 8.68987 20.3449H21.9312C22.1979 20.3449 22.414 20.561 22.414 20.8277C22.414 21.0944 22.1979 21.3104 21.9312 21.3104ZM21.9312 18.7587H8.68987C8.42317 18.7587 8.20711 18.5427 8.20711 18.2759C8.20711 18.0092 8.42317 17.7932 8.68987 17.7932H21.9312C22.1979 17.7932 22.414 18.0092 22.414 18.2759C22.414 18.5427 22.1979 18.7587 21.9312 18.7587Z" fill="black"/>
</svg>
