<svg width="32" height="32" viewBox="0 0 32 32" fill="none" xmlns="http://www.w3.org/2000/svg">
<g clip-path="url(#clip0_10_401)">
<path d="M31.9375 16C31.9375 19.1582 31 22.2295 29.2266 24.8821C28.9856 25.2427 28.5896 25.4375 28.1863 25.4375C27.9475 25.4375 27.7061 25.3694 27.4927 25.2266C26.9187 24.843 26.7647 24.0667 27.1482 23.4927C28.646 21.2527 29.4375 18.6619 29.4375 16C29.4375 14.8562 29.2944 13.7202 29.0122 12.624C28.8401 11.9556 29.2427 11.2739 29.9111 11.1018C30.5801 10.9299 31.2612 11.3323 31.4334 12.0007C31.7678 13.3005 31.9375 14.646 31.9375 16ZM22.9209 27.5559C20.8213 28.8276 18.4065 29.5 15.9375 29.5C8.49365 29.5 2.4375 23.4439 2.4375 16C2.4375 8.55616 8.49365 2.5 15.9375 2.5C18.6936 2.5 21.3438 3.32471 23.6018 4.88501C24.1697 5.27735 24.9482 5.13501 25.3408 4.56714C25.7332 3.99927 25.5911 3.2207 25.023 2.82813C22.3452 0.978028 19.2036 0 15.9375 0C11.6638 0 7.64575 1.66431 4.62378 4.68628C1.60181 7.70825 -0.0625 11.7263 -0.0625 16C-0.0625 20.2737 1.60181 24.2918 4.62378 27.3137C7.64575 30.3357 11.6638 32 15.9375 32C18.8633 32 21.7261 31.2026 24.2163 29.6941C24.8069 29.3364 24.9956 28.5679 24.6379 27.9773C24.28 27.3867 23.5115 27.1983 22.9209 27.5559ZM16.0581 19.6245C15.8601 19.6323 15.6753 19.562 15.5317 19.4253L8.98511 13.218C8.48413 12.7429 7.69287 12.7639 7.21802 13.2649C6.74292 13.7659 6.76392 14.5571 7.26489 15.032L13.8103 21.2383C14.4148 21.813 15.1968 22.125 16.0254 22.125C16.0698 22.125 16.1143 22.124 16.1587 22.1223C17.0364 22.0869 17.8425 21.707 18.4285 21.0525C18.4434 21.0361 18.4575 21.0193 18.4714 21.002L31.6616 4.5957C32.0942 4.05762 32.0088 3.27075 31.4707 2.83838C30.9329 2.40576 30.1458 2.49121 29.7131 3.0293L16.5488 19.4036C16.4194 19.5386 16.2461 19.617 16.0581 19.6245Z" fill="black"/>
</g>
<defs>
<clipPath id="clip0_10_401">
<rect width="32" height="32" fill="white"/>
</clipPath>
</defs>
</svg>
