<svg width="32" height="32" viewBox="0 0 32 32" fill="none" xmlns="http://www.w3.org/2000/svg">
<g clip-path="url(#clip0_15_297)">
<path d="M27.5867 19.9198C26.8133 20.3998 26.08 20.7732 25.4267 21.0398C24.9733 21.2398 24.48 21.3332 24 21.3332C23.52 21.3332 23.0267 21.2398 22.5733 21.0398C21.4133 20.5598 20 19.7598 18.6267 18.6665H5.89333L7.86667 14.1332C8.08 13.6532 8.56 13.3332 9.08 13.3332H14.3333C13.96 12.5065 13.6667 11.6132 13.5067 10.6665H9.08C7.49333 10.6665 6.05333 11.6132 5.41333 13.0665L2.77333 19.1332C2.76 19.1598 2.77333 19.1865 2.76 19.2265C1.13333 20.0532 0 21.7198 0 23.6665V28.6665C0 30.5065 1.49333 31.9998 3.33333 31.9998C5.17333 31.9998 6.66667 30.5065 6.66667 28.6665V27.9998H22.6667V28.6665C22.6667 30.5065 24.16 31.9998 26 31.9998C27.84 31.9998 29.3333 30.5065 29.3333 28.6665V23.6665C29.3333 22.1598 28.6533 20.8132 27.5867 19.9198ZM8 25.3332H5.33333C4.6 25.3332 4 24.7332 4 23.9998C4 23.2665 4.6 22.6665 5.33333 22.6665H8C8.73333 22.6665 9.33333 23.2665 9.33333 23.9998C9.33333 24.7332 8.73333 25.3332 8 25.3332ZM24 25.3332H21.3333C20.6 25.3332 20 24.7332 20 23.9998C20 23.2665 20.6 22.6665 21.3333 22.6665H24C24.7333 22.6665 25.3333 23.2665 25.3333 23.9998C25.3333 24.7332 24.7333 25.3332 24 25.3332Z" fill="black"/>
<path d="M31.3213 2.43484L24.3213 0.0535117C24.1133 -0.0184883 23.8867 -0.0184883 23.6787 0.0535117L16.6787 2.43484C16.272 2.57218 16 2.95351 16 3.38151V8.73885C16 15.2775 23.2987 18.4562 23.6093 18.5882C23.86 18.6935 24.14 18.6935 24.3907 18.5882C24.7013 18.4562 32 15.2775 32 8.73885V3.38151C32 2.95351 31.728 2.57218 31.3213 2.43484ZM28.3813 7.49085L24.7147 12.1575C24.248 12.7535 23.3733 12.8402 22.8 12.3468L20.4667 10.3468C19.9067 9.86818 19.8413 9.02551 20.3227 8.46685C20.8013 7.90818 21.644 7.84418 22.2013 8.32285L23.4787 9.41751L26.2853 5.84551C26.74 5.26685 27.5773 5.16418 28.1573 5.62151C28.736 6.07351 28.8373 6.91218 28.3813 7.49085Z" fill="black"/>
</g>
<defs>
<clipPath id="clip0_15_297">
<rect width="32" height="32" fill="white"/>
</clipPath>
</defs>
</svg>
