<svg width="32" height="32" viewBox="0 0 32 32" fill="none" xmlns="http://www.w3.org/2000/svg">
<g clip-path="url(#clip0_10_197)">
<path d="M18.35 14.4351C17.4869 14.4351 16.7847 15.1372 16.7847 16.0004C16.7847 16.8635 17.4869 17.5657 18.35 17.5657C19.2131 17.5657 19.9153 16.8635 19.9153 16.0004C19.9153 15.1372 19.2131 14.4351 18.35 14.4351Z" fill="black"/>
<path d="M19.3867 9.68994V12.5126C20.1906 12.752 20.8787 13.2619 21.345 13.9369L24.0298 13.0645C23.1167 11.305 21.4099 10.0211 19.3867 9.68994Z" fill="black"/>
<path d="M24.6722 15.0361L21.9867 15.9088C21.9874 15.9393 21.989 15.9696 21.989 16.0002C21.989 16.8313 21.7084 17.5976 21.2378 18.2109L22.8959 20.493C24.0384 19.3373 24.7449 17.7498 24.7449 16.0002C24.7449 15.6726 24.72 15.3506 24.6722 15.0361Z" fill="black"/>
<path d="M18.35 2.3501H5.73682C5.16426 2.3501 4.70007 2.81429 4.70007 3.38685C4.70007 3.95941 5.16426 4.4236 5.73682 4.4236H11.126C9.98896 5.13567 8.96377 6.01017 8.08345 7.01486H1.03675C0.464188 7.01492 0 7.47917 0 8.05173C0 8.6243 0.464188 9.08849 1.03675 9.08849H6.58364C5.38751 11.117 4.70001 13.4796 4.70001 16.0001C4.70001 18.9328 5.62995 21.6524 7.21008 23.8799H4.26845C3.69588 23.8799 3.23169 24.3441 3.23169 24.9166C3.23169 25.4892 3.69588 25.9534 4.26845 25.9534H9.01964C9.66608 26.5598 10.3714 27.1039 11.126 27.5765H1.14369C0.571126 27.5765 0.106938 28.0406 0.106938 28.6132C0.106938 29.1858 0.571126 29.65 1.14369 29.65H18.35C25.8767 29.65 32 23.5266 32 16C32 8.47342 25.8767 2.3501 18.35 2.3501ZM23.3862 22.8038C23.3671 22.82 23.3482 22.8362 23.3276 22.851C23.3045 22.8678 23.2808 22.8835 23.2569 22.8981C21.8716 23.8863 20.1775 24.4683 18.35 24.4683C16.5225 24.4683 14.8285 23.8863 13.4432 22.8981C13.4192 22.8835 13.3956 22.8678 13.3725 22.851C13.352 22.8361 13.333 22.8198 13.3139 22.8038C11.233 21.2594 9.88171 18.7847 9.88171 16.0001C9.88171 11.3306 13.6806 7.53173 18.35 7.53173C23.0195 7.53173 26.8184 11.3306 26.8184 16.0001C26.8184 18.7848 25.4672 21.2594 23.3862 22.8038Z" fill="black"/>
<path d="M12.6699 13.0645L15.3546 13.9369C15.8211 13.262 16.5091 12.7521 17.313 12.5126V9.68994C15.2899 10.0212 13.583 11.305 12.6699 13.0645Z" fill="black"/>
<path d="M19.5614 19.4312C19.1822 19.5654 18.7748 19.6392 18.3502 19.6392C17.9257 19.6392 17.5181 19.5654 17.139 19.4312L15.4805 21.7138C16.344 22.1492 17.3188 22.395 18.3502 22.395C19.3815 22.395 20.3564 22.1493 21.2199 21.7138L19.5614 19.4312Z" fill="black"/>
<path d="M14.711 16.0002C14.711 15.9696 14.7125 15.9393 14.7133 15.9088L12.0277 15.0361C11.98 15.3506 11.9551 15.6726 11.9551 16.0002C11.9551 17.7498 12.6616 19.3373 13.8041 20.4931L15.4622 18.2109C14.9916 17.5976 14.711 16.8313 14.711 16.0002Z" fill="black"/>
</g>
<defs>
<clipPath id="clip0_10_197">
<rect width="32" height="32" fill="white"/>
</clipPath>
</defs>
</svg>
