<svg width="32" height="32" viewBox="0 0 32 32" fill="none" xmlns="http://www.w3.org/2000/svg">
<path fill-rule="evenodd" clip-rule="evenodd" d="M16.0003 2.66699C8.64166 2.66699 2.66699 8.64166 2.66699 16.0003C2.66699 23.359 8.64166 29.3337 16.0003 29.3337C23.359 29.3337 29.3337 23.359 29.3337 16.0003C29.3337 8.64166 23.359 2.66699 16.0003 2.66699ZM14.1137 16.0003L10.343 12.2283C9.82299 11.7083 9.82299 10.863 10.343 10.343C10.863 9.82299 11.7083 9.82299 12.2283 10.343L16.0003 14.115L19.771 10.343C20.291 9.82299 21.1363 9.82299 21.6563 10.343C22.1777 10.863 22.1777 11.7083 21.6563 12.2283L17.8857 16.0003L21.6563 19.771C22.1777 20.291 22.1777 21.1363 21.6563 21.6563C21.1363 22.1777 20.291 22.1777 19.771 21.6563L16.0003 17.8857L12.2283 21.6563C11.7083 22.1777 10.863 22.1777 10.343 21.6563C9.82299 21.1363 9.82299 20.291 10.343 19.771L14.1137 16.0003Z" fill="black"/>
</svg>
