<svg width="32" height="32" viewBox="0 0 32 32" fill="none" xmlns="http://www.w3.org/2000/svg">
<g clip-path="url(#clip0_15_304)">
<path d="M31.04 16.0013C30.5027 15.972 30.012 16.3827 29.976 16.9333C29.488 24.26 23.348 30 16 30C8.28 30 2 23.72 2 16C2 8.28 8.28 2 16 2C19.428 2 22.6427 3.24 25.1507 5.43467L24.2933 6.29333C23.664 6.92 24.108 8 25 8H28.3333C28.8853 8 29.3333 7.552 29.3333 7V3.66667C29.3333 2.78267 28.26 2.328 27.6267 2.96L26.5653 4.02133C23.6813 1.452 19.9667 0 16 0C7.17733 0 0 7.17733 0 16C0 24.8227 7.17733 32 16 32C24.3987 32 31.4147 25.44 31.972 17.0667C32.0093 16.516 31.5907 16.0387 31.04 16.0013Z" fill="black"/>
<path d="M23.3213 10.4348L16.3213 8.05351C16.1133 7.98151 15.8867 7.98151 15.6787 8.05351L8.67867 10.4348C8.272 10.5722 8 10.9522 8 11.3815V16.7388C8 23.2775 15.2987 26.4562 15.6093 26.5882C15.86 26.6935 16.14 26.6935 16.3907 26.5882C16.7013 26.4548 24 23.2775 24 16.7388V11.3815C24 10.9522 23.728 10.5722 23.3213 10.4348ZM20.3813 15.4908L16.7147 20.1575C16.248 20.7535 15.3733 20.8402 14.7987 20.3468L12.4653 18.3468C11.9053 17.8682 11.84 17.0255 12.3213 16.4668C12.8 15.9082 13.6427 15.8442 14.2 16.3228L15.4773 17.4175L18.284 13.8455C18.7387 13.2668 19.576 13.1642 20.156 13.6215C20.736 14.0735 20.8373 14.9122 20.3813 15.4908Z" fill="black"/>
</g>
<defs>
<clipPath id="clip0_15_304">
<rect width="32" height="32" fill="white"/>
</clipPath>
</defs>
</svg>
