<svg width="32" height="32" viewBox="0 0 32 32" fill="none" xmlns="http://www.w3.org/2000/svg">
<path d="M28.0699 1.68008L2.66994 9.55008C2.19943 9.67497 1.78182 9.94845 1.47926 10.3298C1.17671 10.7112 1.00537 11.18 0.990764 11.6666C0.976156 12.1532 1.11905 12.6315 1.39819 13.0303C1.67732 13.4292 2.07777 13.7272 2.53994 13.8801L14.0599 17.7401C14.1019 17.756 14.1403 17.7802 14.173 17.8111C14.2056 17.842 14.2317 17.879 14.2499 17.9201L18.4899 28.9201C18.6615 29.362 18.9644 29.7407 19.3577 30.0053C19.751 30.2699 20.216 30.4077 20.6899 30.4001H20.7499C21.2319 30.3986 21.7011 30.245 22.0907 29.9614C22.4803 29.6777 22.7705 29.2783 22.9199 28.8201L30.9999 4.56008C31.1266 4.17166 31.1451 3.75608 31.0535 3.35793C30.9619 2.95978 30.7636 2.59408 30.4799 2.30008C30.1765 1.98152 29.7898 1.75452 29.3637 1.64491C28.9377 1.5353 28.4894 1.54749 28.0699 1.68008Z" fill="black"/>
</svg>
