<svg width="32" height="32" viewBox="0 0 32 32" fill="none" xmlns="http://www.w3.org/2000/svg">
<g clip-path="url(#clip0_10_299)">
<path d="M7.09148 25.0985C8.78375 25.0985 10.1556 23.7266 10.1556 22.0343C10.1556 20.3421 8.78375 18.9702 7.09148 18.9702C5.3992 18.9702 4.02734 20.3421 4.02734 22.0343C4.02734 23.7266 5.3992 25.0985 7.09148 25.0985Z" fill="black"/>
<path d="M25.0254 17.4319C25.1948 16.9706 25.2816 16.483 25.2816 15.9915C25.2809 13.6841 23.4098 11.8142 21.1024 11.8149C20.6119 11.8151 20.1252 11.9016 19.6646 12.0707V19.9118C21.8297 20.7074 24.2298 19.5971 25.0254 17.4319Z" fill="black"/>
<path d="M12.2786 8.07267L8.40545 13.1583C8.30954 13.2833 8.17529 13.3734 8.02324 13.4148L1.54279 15.1846C0.63562 15.4328 0.0049162 16.2549 0 17.1954V19.5608C0.00938547 20.7115 0.94838 21.6375 2.09913 21.6309H2.61524C2.82905 19.1585 5.00675 17.3276 7.47915 17.5415C9.65497 17.7297 11.3805 19.4551 11.5686 21.6309H18.2346V6.88232H14.6804C13.7385 6.88536 12.8514 7.32505 12.2786 8.07267Z" fill="black"/>
<path d="M30.113 14.7554C29.8016 14.726 29.5443 14.4999 29.4753 14.1948C29.2547 13.1754 28.8462 12.206 28.2707 11.3362C28.0956 11.0733 28.1138 10.7266 28.3154 10.4834L29.5149 9.03403L28.0559 7.55649L26.6128 8.75193C26.3728 8.95117 26.0313 8.97182 25.769 8.80297C24.894 8.23037 23.9223 7.8208 22.9014 7.59421C22.5977 7.53003 22.3707 7.27627 22.3407 6.96735L22.1599 5.09473H19.6646V10.5729C22.6574 9.77862 25.7274 11.5607 26.5217 14.5535C27.3159 17.5462 25.5339 20.6162 22.5411 21.4105C21.5986 21.6607 20.6071 21.6607 19.6646 21.4105V26.9048H22.1598L22.3409 25.0238C22.3707 24.7138 22.5973 24.4584 22.9016 24.3921C23.9212 24.1715 24.8907 23.7629 25.7606 23.1873C26.0235 23.0122 26.3703 23.0305 26.6134 23.232L28.0599 24.4298L29.5437 22.946L28.3459 21.4996C28.1473 21.2591 28.1274 20.9177 28.2967 20.6558C28.8705 19.7809 29.2813 18.8094 29.5092 17.7882C29.5764 17.4838 29.8321 17.2574 30.1424 17.2276L31.9998 17.0469V14.9365L30.113 14.7554Z" fill="black"/>
</g>
<defs>
<clipPath id="clip0_10_299">
<rect width="32" height="32" fill="white"/>
</clipPath>
</defs>
</svg>
