<svg width="22" height="20" viewBox="0 0 22 20" fill="none" xmlns="http://www.w3.org/2000/svg">
<path d="M5.63831 1.50884L5.0576 1.18139L5.0576 1.18139L5.63831 1.50884ZM1.1274 9.50884L1.70811 9.83628L1.70811 9.83628L1.1274 9.50884ZM1.1274 10.4912L1.70811 10.1637L1.70811 10.1637L1.1274 10.4912ZM5.63831 18.4912L6.21902 18.1637L6.21902 18.1637L5.63831 18.4912ZM16.3617 18.4912L15.781 18.1637L15.781 18.1637L16.3617 18.4912ZM20.8726 10.4912L21.4533 10.8186L21.4533 10.8186L20.8726 10.4912ZM20.8726 9.50884L21.4533 9.1814L21.4533 9.18139L20.8726 9.50884ZM16.3617 1.50884L16.9424 1.18139L16.3617 1.50884ZM6.21902 1.83628C6.27811 1.73149 6.38908 1.66667 6.50938 1.66667V0.333333C5.90787 0.333333 5.35304 0.657443 5.0576 1.18139L6.21902 1.83628ZM1.70811 9.83628L6.21902 1.83628L5.0576 1.18139L0.546687 9.18139L1.70811 9.83628ZM1.70811 10.1637C1.65081 10.0621 1.65081 9.93791 1.70811 9.83628L0.546687 9.18139C0.26017 9.68952 0.26017 10.3105 0.546687 10.8186L1.70811 10.1637ZM6.21902 18.1637L1.70811 10.1637L0.546687 10.8186L5.0576 18.8186L6.21902 18.1637ZM6.50938 18.3333C6.38908 18.3333 6.27811 18.2685 6.21902 18.1637L5.0576 18.8186C5.35304 19.3426 5.90787 19.6667 6.50938 19.6667V18.3333ZM15.4906 18.3333H6.50938V19.6667H15.4906V18.3333ZM15.781 18.1637C15.7219 18.2685 15.6109 18.3333 15.4906 18.3333V19.6667C16.0921 19.6667 16.647 19.3426 16.9424 18.8186L15.781 18.1637ZM20.2919 10.1637L15.781 18.1637L16.9424 18.8186L21.4533 10.8186L20.2919 10.1637ZM20.2919 9.83628C20.3492 9.9379 20.3492 10.0621 20.2919 10.1637L21.4533 10.8186C21.7398 10.3105 21.7398 9.68953 21.4533 9.1814L20.2919 9.83628ZM15.781 1.83628L20.2919 9.83628L21.4533 9.18139L16.9424 1.18139L15.781 1.83628ZM15.4906 1.66667C15.6109 1.66667 15.7219 1.73149 15.781 1.83628L16.9424 1.18139C16.647 0.657442 16.0921 0.333333 15.4906 0.333333V1.66667ZM6.50938 1.66667H15.4906V0.333333H6.50938V1.66667ZM14.1394 10C14.1394 11.7705 12.7255 13.1905 11 13.1905V14.5238C13.4786 14.5238 15.4727 12.49 15.4727 10H14.1394ZM11 6.80952C12.7255 6.80952 14.1394 8.22954 14.1394 10H15.4727C15.4727 7.50997 13.4786 5.47619 11 5.47619V6.80952ZM7.86058 10C7.86058 8.22954 9.2745 6.80952 11 6.80952V5.47619C8.52142 5.47619 6.52725 7.50997 6.52725 10H7.86058ZM11 13.1905C9.2745 13.1905 7.86058 11.7705 7.86058 10H6.52725C6.52725 12.49 8.52142 14.5238 11 14.5238V13.1905Z" fill="#1C1C1C"/>
</svg>
