<svg width="32" height="32" viewBox="0 0 32 32" fill="none" xmlns="http://www.w3.org/2000/svg">
<g clip-path="url(#clip0_10_14)">
<path d="M24 16C21.6004 16 19.4532 17.0612 17.9872 18.7344L12.9092 15.6091C13.1692 14.8955 13.3336 14.1363 13.3336 13.3331C13.3336 12.8084 13.2584 12.3035 13.1436 11.8123L19.8936 8.69758C20.8712 9.89039 22.3372 10.6664 24.0004 10.6664C26.9444 10.6664 29.3336 8.27844 29.3336 5.3332C29.3336 2.38797 26.944 0 24 0C21.0536 0 18.6668 2.38797 18.6668 5.3332C18.6668 5.65844 18.7072 5.97242 18.7616 6.28242L12.0195 9.39445C10.8048 7.74719 8.86844 6.66641 6.6668 6.66641C2.98438 6.6668 0 9.65078 0 13.3332C0 17.0156 2.98438 20 6.6668 20C8.5832 20 10.2996 19.1796 11.5156 17.8828L16.586 21.0028C16.2108 21.9296 16 22.9388 16 24C16 28.4192 19.5808 32 24 32C28.4168 32 32 28.4192 32 24C32 19.5808 28.4168 16 24 16Z" fill="black"/>
</g>
<defs>
<clipPath id="clip0_10_14">
<rect width="32" height="32" fill="white"/>
</clipPath>
</defs>
</svg>
