<svg width="32" height="32" viewBox="0 0 32 32" fill="none" xmlns="http://www.w3.org/2000/svg">
<g clip-path="url(#clip0_20_359)">
<path d="M10.9062 20.5938C13.4909 20.5938 15.5938 18.4909 15.5938 15.9062C15.5938 13.3216 13.4909 11.2188 10.9062 11.2188C8.32156 11.2188 6.21875 13.3216 6.21875 15.9062C6.21875 18.4909 8.3215 20.5938 10.9062 20.5938ZM9.96875 14.0312C9.96875 13.5135 10.3885 13.0938 10.9062 13.0938C11.424 13.0938 11.8438 13.5135 11.8438 14.0312V14.9688H12.7812C13.299 14.9688 13.7188 15.3885 13.7188 15.9062C13.7188 16.424 13.299 16.8438 12.7812 16.8438H10.9062C10.3885 16.8438 9.96875 16.424 9.96875 15.9062V14.0312Z" fill="black"/>
<path d="M10.9062 25.4375C16.1617 25.4375 20.4375 21.1617 20.4375 15.9062C20.4375 10.6508 16.1617 6.375 10.9062 6.375C5.65075 6.375 1.375 10.6508 1.375 15.9062C1.375 21.1617 5.65069 25.4375 10.9062 25.4375ZM10.9062 9.34375C14.5248 9.34375 17.4688 12.2877 17.4688 15.9062C17.4688 19.5248 14.5248 22.4688 10.9062 22.4688C7.28769 22.4688 4.34375 19.5248 4.34375 15.9062C4.34375 12.2877 7.28763 9.34375 10.9062 9.34375Z" fill="black"/>
<path d="M28.0938 4.59065V4.44059C28.0938 3.34371 28.6386 2.32559 29.5513 1.71715C29.9821 1.42996 30.0985 0.847902 29.8113 0.41709C29.524 -0.0137227 28.9419 -0.13016 28.5112 0.15709C27.0757 1.11409 26.2187 2.7154 26.2187 4.44059V4.5929C23.9837 5.03822 22.3124 7.04284 22.3124 9.40503V15.9058C22.3125 22.1952 17.1957 27.312 10.9063 27.312H3.75C1.68519 27.312 0.00475252 28.9895 2.52241e-06 31.0532C-0.00118498 31.5737 0.417065 31.9995 0.937503 31.9995H19.8125C25.1628 31.9995 29.5 27.6623 29.5 22.312V13.5824C30.1453 13.226 30.7012 12.7265 31.1293 12.1137C31.6989 11.2986 32 10.3406 32 9.34328C32 6.99309 30.3175 5.02853 28.0938 4.59065ZM27.3125 10.2808C26.7948 10.2808 26.375 9.86103 26.375 9.34328C26.375 8.82553 26.7948 8.40578 27.3125 8.40578C27.8303 8.40578 28.25 8.82553 28.25 9.34328C28.25 9.86103 27.8303 10.2808 27.3125 10.2808Z" fill="black"/>
</g>
<defs>
<clipPath id="clip0_20_359">
<rect width="32" height="32" fill="white"/>
</clipPath>
</defs>
</svg>
