<svg width="32" height="32" viewBox="0 0 32 32" fill="none" xmlns="http://www.w3.org/2000/svg">
<path d="M23.9998 17.3332H7.99984C7.19984 17.3332 6.6665 16.7998 6.6665 15.9998C6.6665 15.1998 7.19984 14.6665 7.99984 14.6665H23.9998C24.7998 14.6665 25.3332 15.1998 25.3332 15.9998C25.3332 16.7998 24.7998 17.3332 23.9998 17.3332Z" fill="black"/>
<path d="M19.9998 25.3332H11.9998C11.1998 25.3332 10.6665 24.7998 10.6665 23.9998C10.6665 23.1998 11.1998 22.6665 11.9998 22.6665H19.9998C20.7998 22.6665 21.3332 23.1998 21.3332 23.9998C21.3332 24.7998 20.7998 25.3332 19.9998 25.3332Z" fill="black"/>
<path d="M27.9998 9.33317H3.99984C3.19984 9.33317 2.6665 8.79984 2.6665 7.99984C2.6665 7.19984 3.19984 6.6665 3.99984 6.6665H27.9998C28.7998 6.6665 29.3332 7.19984 29.3332 7.99984C29.3332 8.79984 28.7998 9.33317 27.9998 9.33317Z" fill="black"/>
</svg>
