<svg width="32" height="32" viewBox="0 0 32 32" fill="none" xmlns="http://www.w3.org/2000/svg">
<g clip-path="url(#clip0_10_570)">
<path d="M27.3984 12.277C27.3723 12.2434 27.3446 12.2106 27.3138 12.1796C27.2829 12.1488 27.25 12.1211 27.2165 12.0951C24.3272 9.2514 20.3662 7.4937 16.0018 7.4933L16 7.49316L15.9982 7.4933C11.6338 7.4937 7.67279 9.2514 4.78359 12.0951C4.74996 12.1211 4.71713 12.1487 4.68634 12.1796C4.65541 12.2106 4.62785 12.2434 4.60178 12.277C1.7577 15.1666 0 19.1283 0 23.4933C0 24.0528 0.453438 24.5063 1.01304 24.5063H30.987C31.5466 24.5063 32 24.0528 32 23.4933C32 19.1283 30.2423 15.1666 27.3984 12.277ZM20.08 22.4803H19.3967C19.2015 21.825 18.8219 21.2496 18.3182 20.8133L18.6173 20.2069C19.3295 20.7752 19.8536 21.5693 20.08 22.4803ZM16.4696 19.9809C16.3159 19.9605 16.1594 19.949 16 19.949C14.3947 19.949 13.0393 21.0166 12.6033 22.4804H11.9201C12.3748 20.65 14.0312 19.2893 16.0001 19.2893C16.2649 19.2893 16.5237 19.3151 16.775 19.3621L16.4696 19.9809ZM21.4606 22.4803C21.1942 21.0413 20.3719 19.7958 19.225 18.9749L21.6476 14.0632C21.8951 13.5614 21.689 12.954 21.1872 12.7066C20.6857 12.459 20.0781 12.6651 19.8305 13.167L17.3902 18.1147C16.9456 17.9998 16.4799 17.9386 16 17.9386C13.283 17.9386 11.017 19.8997 10.5394 22.4804H2.06242C2.28488 19.3879 3.51891 16.5715 5.43356 14.3596L6.12472 15.0507C6.3226 15.2485 6.58194 15.3475 6.84115 15.3475C7.10035 15.3475 7.35969 15.2486 7.55757 15.0507C7.9532 14.6551 7.9532 14.0136 7.55757 13.6182L6.86627 12.9269C9.07808 11.0123 11.8946 9.77859 14.9871 9.55599V10.7096C14.9871 11.2691 15.4405 11.7227 16.0001 11.7227C16.5597 11.7227 17.0132 11.2691 17.0132 10.7096V9.55599C20.1057 9.77859 22.9221 11.0123 25.134 12.9269L24.4427 13.6182C24.0471 14.0138 24.0471 14.6552 24.4427 15.0507C24.6406 15.2485 24.8999 15.3475 25.1591 15.3475C25.4183 15.3475 25.6777 15.2486 25.8755 15.0507L26.5667 14.3596C28.4814 16.5715 29.7154 19.3879 29.9379 22.4804H21.4606V22.4803Z" fill="black"/>
</g>
<defs>
<clipPath id="clip0_10_570">
<rect width="32" height="32" fill="white"/>
</clipPath>
</defs>
</svg>
