<svg width="32" height="32" viewBox="0 0 32 32" fill="none" xmlns="http://www.w3.org/2000/svg">
<path d="M29.9112 13.7502L23.6822 19.8222L25.1532 28.3982C25.2172 28.7732 25.0632 29.1522 24.7552 29.3762C24.5812 29.5032 24.3742 29.5672 24.1672 29.5672C24.0082 29.5672 23.8482 29.5292 23.7022 29.4522L16.0002 25.4032L8.29916 29.4512C7.96316 29.6292 7.55416 29.6002 7.24616 29.3752C6.93816 29.1512 6.78416 28.7722 6.84816 28.3972L8.31916 19.8212L2.08916 13.7502C1.81716 13.4842 1.71816 13.0862 1.83616 12.7252C1.95416 12.3642 2.26716 12.0992 2.64416 12.0442L11.2532 10.7942L15.1032 2.99223C15.4402 2.30923 16.5602 2.30923 16.8972 2.99223L20.7472 10.7942L29.3562 12.0442C29.7332 12.0992 30.0462 12.3632 30.1642 12.7252C30.2822 13.0872 30.1832 13.4832 29.9112 13.7502Z" fill="black"/>
</svg>
