<svg width="32" height="32" viewBox="0 0 32 32" fill="none" xmlns="http://www.w3.org/2000/svg">
<g clip-path="url(#clip0_15_300)">
<path d="M16 17.875C16.5178 17.875 16.9375 17.4553 16.9375 16.9375C16.9375 16.4197 16.5178 16 16 16C15.4822 16 15.0625 16.4197 15.0625 16.9375C15.0625 17.4553 15.4822 17.875 16 17.875Z" fill="black"/>
<path d="M16 0C7.19013 0 0 7.19056 0 16C0 24.8101 7.19056 32 16 32C24.81 32 32 24.8094 32 16C32 7.19013 24.8094 0 16 0ZM16 3.8125C22.0827 3.8125 27.1387 8.29175 28.0432 14.125H24.7921C22.7307 14.125 20.7722 13.2978 19.4188 11.8556C17.5688 9.88394 14.4314 9.88331 12.5813 11.8555C11.2278 13.2978 9.26931 14.125 7.20787 14.125H3.95675C4.86131 8.29175 9.91731 3.8125 16 3.8125ZM16 19.75C14.4493 19.75 13.1875 18.4884 13.1875 16.9375C13.1875 15.3866 14.4493 14.125 16 14.125C17.5509 14.125 18.8125 15.3866 18.8125 16.9375C18.8125 18.4884 17.5509 19.75 16 19.75ZM4.65125 20.4436C5.72437 20.0226 6.49925 19.75 7.5625 19.75C10.9805 19.75 13.6387 22.7959 13.1238 26.2181H13.1216C13.0451 26.7419 12.8946 27.2495 12.6776 27.7272C9.00513 26.6853 6.03319 23.9608 4.65125 20.4436ZM19.3232 27.7269C19.1002 27.2366 18.9529 26.7291 18.8784 26.2181H18.8762C18.2763 22.2303 21.9575 18.9399 25.7733 19.9096C26.1756 20.0119 26.6789 20.1809 27.3487 20.4436C25.9669 23.9606 22.9952 26.6849 19.3232 27.7269Z" fill="black"/>
</g>
<defs>
<clipPath id="clip0_15_300">
<rect width="32" height="32" fill="white"/>
</clipPath>
</defs>
</svg>
