<svg width="32" height="32" viewBox="0 0 32 32" fill="none" xmlns="http://www.w3.org/2000/svg">
<path d="M30.012 15.0305L25.3574 10.3759C25.2605 10.279 25.1635 10.2305 25.018 10.2305H20.412C20.1696 10.2305 19.9271 10.4729 19.9271 10.7153V20.8971H2.32713C2.08471 20.8971 1.84229 21.1396 1.84229 21.382V25.6971C1.84229 25.988 2.08471 26.182 2.32713 26.182H4.9938C4.9938 26.0365 4.94531 25.8426 4.94531 25.6971C4.94531 23.6123 6.64228 21.9153 8.72713 21.9153C10.812 21.9153 12.509 23.6123 12.509 25.6971C12.509 25.8426 12.509 26.0365 12.4605 26.182H19.6362C19.6362 26.0365 19.5877 25.8426 19.5877 25.6971C19.5877 23.6123 21.2847 21.9153 23.3696 21.9153C25.4544 21.9153 27.1514 23.6123 27.1514 25.6971C27.1514 25.8426 27.1514 26.0365 27.1029 26.182H29.7696C30.0605 26.182 30.2544 25.988 30.2544 25.6971V15.4183C30.1574 15.2729 30.1089 15.1274 30.012 15.0305ZM27.8786 18.085H22.2544V12.5577H23.7574L27.9271 16.7274V18.085H27.8786Z" fill="black"/>
<path d="M23.3209 22.8853C21.7694 22.8853 20.5088 24.1459 20.5088 25.6974C20.5088 27.2489 21.7694 28.5095 23.3209 28.5095C24.8724 28.5095 26.133 27.2489 26.133 25.6974C26.0845 24.1459 24.8724 22.8853 23.3209 22.8853Z" fill="black"/>
<path d="M8.67882 22.8853C7.1273 22.8853 5.8667 24.1459 5.8667 25.6974C5.8667 27.2489 7.1273 28.5095 8.67882 28.5095C10.2303 28.5095 11.4909 27.2489 11.4909 25.6974C11.4909 24.1459 10.2303 22.8853 8.67882 22.8853Z" fill="black"/>
<path d="M4.31465 15.8062C5.23586 15.8062 6.01161 15.0305 6.01161 14.1092C6.01161 13.3335 5.47828 12.7032 4.79949 12.4608V7.41834L10.7631 18.5214H10.0843C9.11464 18.5214 8.33889 19.1032 7.95101 19.8789H19.0056V19.1517C18.5692 18.7638 18.0359 18.5214 17.4056 18.5214H16.6298L6.44798 4.16985C6.15707 3.78198 5.72071 3.53955 5.23586 3.53955C4.70252 3.53955 4.21768 3.83046 3.92677 4.26682C3.68434 4.6547 3.63586 5.18804 3.8298 5.6244V12.8971C3.8298 13.188 4.02374 13.382 4.31465 13.382C4.70252 13.382 5.04192 13.7214 5.04192 14.1092C5.04192 14.4971 4.70252 14.8365 4.31465 14.8365C3.92677 14.8365 3.58737 14.4971 3.58737 14.1092C3.58737 13.8183 3.39343 13.6244 3.10252 13.6244C2.81162 13.6244 2.61768 13.8183 2.61768 14.1092C2.61768 15.0305 3.39343 15.8062 4.31465 15.8062ZM5.23586 4.41228C5.52677 4.41228 5.76919 4.6547 5.76919 4.94561C5.76919 5.23652 5.52677 5.47894 5.23586 5.47894C4.94495 5.47894 4.70252 5.23652 4.70252 4.94561C4.70252 4.6547 4.89646 4.41228 5.23586 4.41228Z" fill="black"/>
</svg>
