<svg width="32" height="32" viewBox="0 0 32 32" fill="none" xmlns="http://www.w3.org/2000/svg">
<g clip-path="url(#clip0_10_33)">
<path d="M16.0017 16.6168C20.5732 16.6168 24.3101 12.8799 24.3101 8.3084C24.3101 3.73694 20.5732 0 16.0017 0C11.4302 0 7.69336 3.73694 7.69336 8.3084C7.69336 12.8799 11.4303 16.6168 16.0017 16.6168Z" fill="black"/>
<path d="M30.2604 23.256C30.0427 22.7118 29.7525 22.2039 29.4259 21.7322C27.757 19.2651 25.1811 17.6324 22.2786 17.2333C21.9158 17.1971 21.5167 17.2696 21.2264 17.4873C19.7026 18.612 17.8886 19.1925 16.0019 19.1925C14.1153 19.1925 12.3012 18.612 10.7774 17.4873C10.4871 17.2696 10.088 17.1608 9.72525 17.2333C6.82275 17.6324 4.21053 19.2651 2.57789 21.7322C2.25136 22.2039 1.96109 22.7481 1.74345 23.256C1.63463 23.4737 1.67088 23.7277 1.7797 23.9454C2.06998 24.4533 2.43275 24.9613 2.75928 25.3967C3.2672 26.086 3.81143 26.7028 4.42824 27.2833C4.93616 27.7912 5.51664 28.2628 6.0972 28.7345C8.96338 30.8751 12.4101 31.9998 15.9657 31.9998C19.5212 31.9998 22.968 30.8751 25.8341 28.7345C26.4146 28.2992 26.9951 27.7912 27.5031 27.2833C28.0836 26.7028 28.6641 26.086 29.1721 25.3967C29.5348 24.925 29.8614 24.4533 30.1516 23.9454C30.333 23.7277 30.3692 23.4737 30.2604 23.256Z" fill="black"/>
</g>
<defs>
<clipPath id="clip0_10_33">
<rect width="32" height="32" fill="white"/>
</clipPath>
</defs>
</svg>
