<svg width="32" height="32" viewBox="0 0 32 32" fill="none" xmlns="http://www.w3.org/2000/svg">
<path d="M16 22.75C10.8996 22.75 6.75 26.8996 6.75 32H9.25C9.25 30.5898 9.685 29.2793 10.4275 28.1953L13.3347 31.1025C13.2397 31.3844 13.1875 31.686 13.1875 32H18.8125C18.8125 31.686 18.7603 31.3844 18.6654 31.1024L21.5726 28.1952C22.315 29.2793 22.75 30.5898 22.75 32H25.25C25.25 26.8996 21.1004 22.75 16 22.75ZM15.1024 29.3346L12.1952 26.4274C13.2793 25.685 14.5898 25.25 16 25.25C17.4102 25.25 18.7207 25.685 19.8047 26.4275L16.8975 29.3347C16.6156 29.2397 16.3139 29.1875 16 29.1875C15.6861 29.1875 15.3844 29.2397 15.1024 29.3346ZM27.3137 20.6863C25.5711 18.9436 23.4968 17.6536 21.2337 16.8726C23.6576 15.2032 25.25 12.4093 25.25 9.25C25.25 4.14956 21.1004 0 16 0C10.8996 0 6.75 4.14956 6.75 9.25C6.75 12.4093 8.34244 15.2032 10.7664 16.8727C8.50325 17.6536 6.429 18.9436 4.68631 20.6863C1.66431 23.7083 0 27.7262 0 32H2.5C2.5 24.5561 8.55606 18.5 16 18.5C23.4439 18.5 29.5 24.5561 29.5 32H32C32 27.7262 30.3357 23.7083 27.3137 20.6863ZM9.25 9.25C9.25 5.52806 12.278 2.5 16 2.5C19.722 2.5 22.75 5.52806 22.75 9.25C22.75 12.9719 19.722 16 16 16C12.278 16 9.25 12.9719 9.25 9.25Z" fill="black"/>
</svg>
