<?xml version="1.0" encoding="UTF-8"?>
<svg width="105px" height="28px" viewBox="0 0 105 28" version="1.1" xmlns="http://www.w3.org/2000/svg" xmlns:xlink="http://www.w3.org/1999/xlink">
    <title>Group 3</title>
    <defs>
        <linearGradient x1="-29.5640573%" y1="44.7787789%" x2="151.284685%" y2="57.4313326%" id="linearGradient-1">
            <stop stop-color="#E86950" offset="0%"></stop>
            <stop stop-color="#FB154B" offset="43.8309023%"></stop>
            <stop stop-color="#920E92" offset="69.8691511%"></stop>
            <stop stop-color="#910E93" offset="100%"></stop>
        </linearGradient>
    </defs>
    <g id="User" stroke="none" stroke-width="1" fill="none" fill-rule="evenodd">
        <g id="Select-Language" transform="translate(-135, -52)">
            <g id="Group-3" transform="translate(135, 52)">
                <g id="Group-29-Copy">
                    <path d="M6.78683704,4.61852778e-14 L16.390909,22.0075599 L13.909199,27.9536609 L12.6412104,27.9536609 L-2.13162821e-14,4.61852778e-14 L6.78683704,4.61852778e-14 Z M21.661303,4.08562073e-14 L27.9328045,15.084245 L34.7010125,4.08562073e-14 L40.9291813,4.08562073e-14 L28.4722363,27.9536609 L27.2340136,27.9536609 L20.7164875,12.7375954 L18.5167581,17.6545643 L15.331687,10.2012132 L19.8781814,4.08562073e-14 L21.661303,4.08562073e-14 Z M46.5472939,2.78703714 L47.7318944,-1.66977543e-13 L52.7133606,-1.66977543e-13 L65.2719779,27.9536609 L57.7727659,27.9536609 L46.5472939,2.78703714 Z M69.3275109,27.9536609 L75.6525277,27.9536609 L75.6525277,15.750144 L88.5614627,15.750144 L88.5614627,10.0346545 L69.3275109,10.0346545 L69.3275109,27.9536609 Z M69.2896093,6.01298696 L93.8287851,6.01298696 L93.8287851,1.02140518e-14 L69.2896093,1.02140518e-14 L69.2896093,6.01298696 Z M104.884628,27.9536609 L98.5265497,27.9536609 L98.5265497,6.01298696 L104.884628,9.9798618 L104.884628,27.9536609 Z" id="Combined-Shape" fill="url(#linearGradient-1)"></path>
                    <g id="Group" transform="translate(46.2749, 0)"></g>
                </g>
                <polygon id="Path-18" fill="#000000" points="35.2749493 27.9536609 44.4542905 7.41340092 48.1824193 15.4672489 42.5704397 27.9536609"></polygon>
                <polygon id="Path-24" fill="#000000" transform="translate(101.7056, 3.0065) scale(-1, 1) translate(-101.7056, -3.0065)" points="98.5265497 6.01298696 104.884628 2.29720714 104.884628 5.19584376e-14 98.5265497 5.19584376e-14"></polygon>
            </g>
        </g>
    </g>
</svg>