<svg width="32" height="32" viewBox="0 0 32 32" fill="none" xmlns="http://www.w3.org/2000/svg">
<path d="M24.1849 9.12535L22.2049 5.84535C21.898 5.33086 21.4092 4.95032 20.8351 4.77903C20.261 4.60774 19.6436 4.65817 19.1049 4.92035C19.0349 4.95035 12.2949 9.12535 12.2949 9.12535H24.1849Z" fill="black"/>
<path d="M10.4001 9.12522C10.4001 9.12522 18.46 4.11189 18.6351 4.03522L17.4701 2.88522C17.0374 2.45022 16.4502 2.20399 15.8367 2.20024C15.2232 2.19649 14.633 2.43553 14.1951 2.86522L7.70508 9.12522H10.4001Z" fill="black"/>
<path d="M28.6599 16.8101H22.2249C21.4147 16.8101 20.6376 17.1319 20.0647 17.7048C19.4918 18.2778 19.1699 19.0548 19.1699 19.8651C19.1699 20.6753 19.4918 21.4523 20.0647 22.0253C20.6376 22.5982 21.4147 22.9201 22.2249 22.9201H28.6599C29.0153 22.92 29.3561 22.7789 29.6074 22.5276C29.8587 22.2763 29.9999 21.9354 29.9999 21.5801V18.1551C30.0001 17.7992 29.8591 17.4577 29.6079 17.2056C29.3567 16.9534 29.0158 16.8112 28.6599 16.8101ZM23.5699 19.5001C23.7008 19.5027 23.8254 19.5565 23.9171 19.65C24.0087 19.7435 24.06 19.8692 24.06 20.0001C24.06 20.131 24.0087 20.2566 23.9171 20.3501C23.8254 20.4436 23.7008 20.4974 23.5699 20.5001C23.439 20.4974 23.3144 20.4436 23.2228 20.3501C23.1311 20.2566 23.0798 20.131 23.0798 20.0001C23.0798 19.8692 23.1311 19.7435 23.2228 19.65C23.3144 19.5565 23.439 19.5027 23.5699 19.5001Z" fill="black"/>
<path d="M22.225 23.92C16.8577 23.7195 16.8618 16.0116 22.225 15.81H26.415H27.415V12.625C27.4148 11.962 27.1513 11.3263 26.6825 10.8575C26.2137 10.3887 25.578 10.1252 24.915 10.125H4.5C3.83703 10.1252 3.20129 10.3887 2.7325 10.8575C2.26371 11.3263 2.00024 11.962 2 12.625V27.295C2.00024 27.958 2.26371 28.5937 2.7325 29.0625C3.20129 29.5313 3.83703 29.7948 4.5 29.795H24.915C25.578 29.7948 26.2137 29.5313 26.6825 29.0625C27.1513 28.5937 27.4148 27.958 27.415 27.295V23.92C26.8099 23.9157 22.9253 23.9231 22.225 23.92Z" fill="black"/>
</svg>
