<svg width="16" height="16" viewBox="0 0 16 16" fill="none" xmlns="http://www.w3.org/2000/svg">
<g opacity="0.8">
<path fill-rule="evenodd" clip-rule="evenodd" d="M12.3754 7.73387L14.9087 12.1317C14.9969 12.2845 14.9838 12.4757 14.8764 12.6154C14.769 12.755 14.5875 12.8179 14.4172 12.7707L11.8543 12.0811L11.1725 14.6432C11.1271 14.8143 10.9831 14.9409 10.8085 14.9636C10.7893 14.9662 10.7692 14.9671 10.7509 14.9671C10.5964 14.9671 10.4515 14.885 10.3729 14.7488L7.98366 10.6128L5.59442 14.7488C5.51586 14.885 5.37095 14.9671 5.21644 14.9671C5.19811 14.9671 5.1789 14.9662 5.15882 14.9627C4.98423 14.94 4.8402 14.8134 4.79481 14.6423L4.11304 12.0802L1.55008 12.7699C1.37986 12.817 1.19916 12.7542 1.09092 12.6145C0.982672 12.4748 0.970451 12.2836 1.05862 12.13L3.59189 7.733C3.33001 7.14114 3.18248 6.48818 3.18248 5.80118C3.18248 3.15355 5.33603 1 7.98366 1C10.6313 1 12.7848 3.15355 12.7848 5.80118C12.7848 6.48818 12.6373 7.14114 12.3754 7.73387ZM4.84369 11.4334L5.36658 13.3984L7.03652 10.5081C5.83099 10.2654 4.79131 9.56879 4.09558 8.60681L2.34097 11.6525L4.30858 11.1235C4.41944 11.0947 4.53991 11.1095 4.6403 11.1671C4.74068 11.2256 4.81401 11.3217 4.84369 11.4334ZM4.05542 5.80118C4.05542 3.63541 5.81789 1.87294 7.98366 1.87294C10.1494 1.87294 11.9119 3.63541 11.9119 5.80118C11.9119 7.96694 10.1494 9.72941 7.98366 9.72941C5.81789 9.72941 4.05542 7.96694 4.05542 5.80118ZM11.327 11.168C11.4274 11.1104 11.547 11.0947 11.6587 11.1244L13.6264 11.6534L11.8717 8.60768C11.176 9.56966 10.1355 10.2671 8.9308 10.5089L10.6007 13.3993L11.1236 11.4343C11.1533 11.3217 11.2266 11.2256 11.327 11.168Z" fill="black"/>
<path d="M14.9087 12.1317L14.822 12.1817L14.8221 12.1817L14.9087 12.1317ZM12.3754 7.73387L12.284 7.69345L12.2635 7.73984L12.2888 7.78378L12.3754 7.73387ZM14.4172 12.7707L14.4439 12.6744L14.4432 12.6742L14.4172 12.7707ZM11.8543 12.0811L11.8803 11.9845L11.7834 11.9585L11.7576 12.0554L11.8543 12.0811ZM11.1725 14.6432L11.0759 14.6175L11.0759 14.6176L11.1725 14.6432ZM10.8085 14.9636L10.7956 14.8644L10.795 14.8645L10.8085 14.9636ZM10.3729 14.7488L10.4595 14.6989L10.4595 14.6988L10.3729 14.7488ZM7.98366 10.6128L8.07025 10.5628L7.98366 10.4129L7.89707 10.5628L7.98366 10.6128ZM5.59442 14.7488L5.50783 14.6988L5.5078 14.6989L5.59442 14.7488ZM5.15882 14.9627L5.17597 14.8641L5.17171 14.8635L5.15882 14.9627ZM4.79481 14.6423L4.89146 14.6167L4.89144 14.6166L4.79481 14.6423ZM4.11304 12.0802L4.20968 12.0545L4.18389 11.9576L4.08706 11.9837L4.11304 12.0802ZM1.55008 12.7699L1.5241 12.6733L1.5234 12.6735L1.55008 12.7699ZM1.09092 12.6145L1.16996 12.5532L1.16996 12.5532L1.09092 12.6145ZM1.05862 12.13L0.97197 12.0801L0.971885 12.0802L1.05862 12.13ZM3.59189 7.733L3.67854 7.78292L3.70388 7.73894L3.68334 7.69253L3.59189 7.733ZM5.36658 13.3984L5.26995 13.4241L5.33215 13.6579L5.45317 13.4484L5.36658 13.3984ZM4.84369 11.4334L4.74704 11.4591L4.74705 11.4591L4.84369 11.4334ZM7.03652 10.5081L7.12311 10.5581L7.19277 10.4375L7.05625 10.41L7.03652 10.5081ZM4.09558 8.60681L4.17661 8.54821L4.08606 8.42301L4.00893 8.55689L4.09558 8.60681ZM2.34097 11.6525L2.25432 11.6026L2.13382 11.8117L2.36693 11.7491L2.34097 11.6525ZM4.30858 11.1235L4.28343 11.0267L4.28261 11.0269L4.30858 11.1235ZM4.6403 11.1671L4.69064 11.0807L4.69007 11.0804L4.6403 11.1671ZM11.6587 11.1244L11.6847 11.0278L11.6844 11.0277L11.6587 11.1244ZM11.327 11.168L11.2772 11.0813L11.2772 11.0813L11.327 11.168ZM13.6264 11.6534L13.6004 11.7499L13.8335 11.8126L13.713 11.6035L13.6264 11.6534ZM11.8717 8.60768L11.9584 8.55776L11.8813 8.42388L11.7907 8.54908L11.8717 8.60768ZM8.9308 10.5089L8.91112 10.4109L8.77451 10.4383L8.84421 10.559L8.9308 10.5089ZM10.6007 13.3993L10.5142 13.4493L10.6352 13.6587L10.6974 13.425L10.6007 13.3993ZM11.1236 11.4343L11.2203 11.46L11.2203 11.4598L11.1236 11.4343ZM14.9954 12.0818L12.4621 7.68395L12.2888 7.78378L14.822 12.1817L14.9954 12.0818ZM14.9557 12.6763C15.0876 12.5047 15.1038 12.2697 14.9953 12.0818L14.8221 12.1817C14.8899 12.2993 14.8799 12.4467 14.7971 12.5544L14.9557 12.6763ZM14.3905 12.8671C14.6009 12.9254 14.8241 12.8475 14.9557 12.6763L14.7971 12.5544C14.714 12.6625 14.574 12.7104 14.4439 12.6744L14.3905 12.8671ZM11.8283 12.1777L14.3913 12.8673L14.4432 12.6742L11.8803 11.9845L11.8283 12.1777ZM11.2692 14.6689L11.9509 12.1068L11.7576 12.0554L11.0759 14.6175L11.2692 14.6689ZM10.8214 15.0627C11.0364 15.0348 11.2134 14.879 11.2692 14.6688L11.0759 14.6176C11.0408 14.7496 10.9298 14.847 10.7956 14.8644L10.8214 15.0627ZM10.7509 15.0671C10.772 15.0671 10.7969 15.0661 10.822 15.0626L10.795 14.8645C10.7817 14.8663 10.7664 14.8671 10.7509 14.8671V15.0671ZM10.2863 14.7988C10.3829 14.9663 10.561 15.0671 10.7509 15.0671V14.8671C10.6317 14.8671 10.52 14.8037 10.4595 14.6989L10.2863 14.7988ZM7.89707 10.6628L10.2863 14.7988L10.4595 14.6988L8.07025 10.5628L7.89707 10.6628ZM5.68101 14.7988L8.07025 10.6628L7.89707 10.5628L5.50783 14.6988L5.68101 14.7988ZM5.21644 15.0671C5.40631 15.0671 5.58443 14.9663 5.68104 14.7988L5.5078 14.6989C5.44729 14.8037 5.33559 14.8671 5.21644 14.8671V15.0671ZM5.14169 15.0612C5.16955 15.0661 5.19502 15.0671 5.21644 15.0671V14.8671C5.20119 14.8671 5.18825 14.8663 5.17595 14.8642L5.14169 15.0612ZM4.69815 14.668C4.75391 14.8781 4.93091 15.0339 5.14593 15.0619L5.17171 14.8635C5.03756 14.8461 4.92649 14.7487 4.89146 14.6167L4.69815 14.668ZM4.0164 12.106L4.69817 14.668L4.89144 14.6166L4.20968 12.0545L4.0164 12.106ZM1.57607 12.8664L4.13902 12.1768L4.08706 11.9837L1.5241 12.6733L1.57607 12.8664ZM1.01188 12.6757C1.14418 12.8465 1.36621 12.9245 1.57677 12.8662L1.5234 12.6735C1.39351 12.7095 1.25414 12.6618 1.16996 12.5532L1.01188 12.6757ZM0.971885 12.0802C0.863817 12.2685 0.878475 12.5036 1.01188 12.6757L1.16996 12.5532C1.08687 12.446 1.07709 12.2987 1.14535 12.1798L0.971885 12.0802ZM3.50525 7.68307L0.97197 12.0801L1.14527 12.1799L3.67854 7.78292L3.50525 7.68307ZM3.08248 5.80118C3.08248 6.50265 3.23314 7.16935 3.50045 7.77346L3.68334 7.69253C3.42688 7.11293 3.28248 6.47371 3.28248 5.80118H3.08248ZM7.98366 0.9C5.2808 0.9 3.08248 3.09832 3.08248 5.80118H3.28248C3.28248 3.20877 5.39126 1.1 7.98366 1.1V0.9ZM12.8848 5.80118C12.8848 3.09832 10.6865 0.9 7.98366 0.9V1.1C10.5761 1.1 12.6848 3.20877 12.6848 5.80118H12.8848ZM12.4669 7.77428C12.7342 7.16934 12.8848 6.50266 12.8848 5.80118H12.6848C12.6848 6.4737 12.5404 7.11294 12.284 7.69345L12.4669 7.77428ZM5.46322 13.3727L4.94033 11.4077L4.74705 11.4591L5.26995 13.4241L5.46322 13.3727ZM6.94993 10.458L5.28 13.3484L5.45317 13.4484L7.12311 10.5581L6.94993 10.458ZM4.01455 8.66541C4.72447 9.64701 5.78567 10.3583 7.01678 10.6061L7.05625 10.41C5.8763 10.1725 4.85816 9.49057 4.17661 8.54821L4.01455 8.66541ZM2.42762 11.7024L4.18223 8.65673L4.00893 8.55689L2.25432 11.6026L2.42762 11.7024ZM4.28261 11.0269L2.31501 11.5559L2.36693 11.7491L4.33454 11.2201L4.28261 11.0269ZM4.69007 11.0804C4.56639 11.0094 4.41895 10.9915 4.28343 11.0267L4.33373 11.2203C4.41993 11.1979 4.51342 11.2096 4.59052 11.2539L4.69007 11.0804ZM4.94034 11.4077C4.90383 11.2703 4.81378 11.1525 4.69064 11.0807L4.58996 11.2536C4.66759 11.2988 4.72419 11.373 4.74704 11.4591L4.94034 11.4077ZM7.98366 1.77294C5.76266 1.77294 3.95542 3.58018 3.95542 5.80118H4.15542C4.15542 3.69064 5.87312 1.97294 7.98366 1.97294V1.77294ZM12.0119 5.80118C12.0119 3.58018 10.2047 1.77294 7.98366 1.77294V1.97294C10.0942 1.97294 11.8119 3.69064 11.8119 5.80118H12.0119ZM7.98366 9.82941C10.2047 9.82941 12.0119 8.02217 12.0119 5.80118H11.8119C11.8119 7.91171 10.0942 9.62941 7.98366 9.62941V9.82941ZM3.95542 5.80118C3.95542 8.02217 5.76266 9.82941 7.98366 9.82941V9.62941C5.87312 9.62941 4.15542 7.91171 4.15542 5.80118H3.95542ZM11.6844 11.0277C11.5472 10.9913 11.4005 11.0106 11.2772 11.0813L11.3768 11.2547C11.4543 11.2102 11.5468 11.1981 11.6331 11.221L11.6844 11.0277ZM13.6523 11.5568L11.6847 11.0278L11.6328 11.2209L13.6004 11.7499L13.6523 11.5568ZM11.7851 8.6576L13.5397 11.7033L13.713 11.6035L11.9584 8.55776L11.7851 8.6576ZM8.95048 10.607C10.1808 10.36 11.2429 9.64786 11.9528 8.66628L11.7907 8.54908C11.1091 9.49147 10.0901 10.1742 8.91112 10.4109L8.95048 10.607ZM10.6873 13.3492L9.01739 10.4589L8.84421 10.559L10.5142 13.4493L10.6873 13.3492ZM11.027 11.4085L10.5041 13.3735L10.6974 13.425L11.2203 11.46L11.027 11.4085ZM11.2772 11.0813C11.1535 11.1523 11.0634 11.2705 11.0269 11.4088L11.2203 11.4598C11.2432 11.3728 11.2998 11.2989 11.3768 11.2547L11.2772 11.0813Z" fill="black"/>
</g>
<path opacity="0.8" d="M7.38461 6.43427L6.58526 5.65681L6.23764 5.99493L7.38461 7.11058L9.7294 4.82988L9.38179 4.49176L7.38461 6.43427Z" fill="black" stroke="black" stroke-width="0.5"/>
</svg>
